<?xml version="1.0" encoding="utf-8"?>
<!-- Generator: Adobe Illustrator 23.1.1, SVG Export Plug-In . SVG Version: 6.00 Build 0)  -->
<svg version="1.1" id="Layer_1" xmlns="http://www.w3.org/2000/svg" xmlns:xlink="http://www.w3.org/1999/xlink" x="0px" y="0px"
	 viewBox="0 0 720 576" style="enable-background:new 0 0 720 576;" xml:space="preserve">
<style type="text/css">
	.st0{clip-path:url(#SVGID_2_);}
	.st1{clip-path:url(#SVGID_4_);fill:#6AC9C9;}
	.st2{fill:#754C29;}
	.st3{fill:#ED1C24;}
	.st4{fill:#FFCF5B;}
	.st5{fill:#FFFFFF;}
	.st6{fill:#F79131;}
	.st7{clip-path:url(#SVGID_6_);fill:#5EB2B3;}
	.st8{fill:#E1B752;}
	.st9{fill:#D9802B;}
	.st10{fill:#D1181F;}
	.st11{fill:#5EB2B3;}
	.st12{fill:#694422;}
	.st13{fill:#DFE0E2;}
	.st14{fill:#599089;}
	.st15{fill:#FFFFFF;stroke:#FFFFFF;stroke-miterlimit:10;}
</style>
<g>
	<defs>
		<path id="SVGID_1_" d="M387.31,170.55l22.13-12.26l-1.33,25.42c0,0,1,1.43,0.19,2.73c-0.81,1.29-0.92,0.83-3.28,0.75
			c-2.36-0.08-14.32-2.88-19.22-12.17C385.09,173.77,384.03,171,387.31,170.55z"/>
	</defs>
	<clipPath id="SVGID_2_">
		<use xlink:href="#SVGID_1_"  style="overflow:visible;"/>
	</clipPath>
	<g class="st0">
		<g>
			<defs>
				
					<rect id="SVGID_3_" x="307.53" y="97.67" transform="matrix(0.5319 -0.8468 0.8468 0.5319 26.3671 378.8679)" width="96.67" height="135.82"/>
			</defs>
			<clipPath id="SVGID_4_">
				<use xlink:href="#SVGID_3_"  style="overflow:visible;"/>
			</clipPath>
			<polyline class="st1" points="387.66,242.64 272.63,170.39 324.05,88.52 439.08,160.77 387.66,242.64 			"/>
		</g>
		<polygon class="st2" points="308.39,146.56 304.42,141.06 303.22,142.2 306.15,147.36 305.32,150.59 306.83,151.5 308.39,146.56 
					"/>
		<path class="st3" d="M391.87,199.47c-0.01-0.08-0.24-0.13-0.53-0.21c-0.37-0.1-0.82-0.25-0.89-0.58c-0.16-0.71,0.16-1.16,0.7-1.56
			c0.16-0.12,0.33-0.21,0.51-0.28c-0.25-0.99-0.69-1.23-1.32-0.73c-0.33,0.15-0.9,0.42-1.26,0.5c-1.01,0.22-1.73,0.21-2.65-0.29
			c-0.24-0.13-0.23-0.46-0.06-0.64c1.17-1.16,2.65-1.54,4.03-2.35c0.72-0.22,1.12-0.7,1.19-1.44c-0.66-0.19-1.33-0.2-2.01-0.05
			c-0.9,0.27-1.63,0.75-2.48,1.11c-1.08,0.47-4.37,2.22-4.82,0.26c-0.04-0.19,0.05-0.35,0.21-0.45c1.5-0.96,3-1.92,4.5-2.88
			c-1.05-0.26-2.96,0.63-3.71,0.86c-0.5,0.15-0.67-0.63-0.18-0.78c1.46-0.45,3.68-1.73,4.95-0.36c0.19,0.2,0.1,0.49-0.11,0.63
			c-1.27,0.81-2.54,1.62-3.82,2.44c-1.84,1.17,2.16-0.21,2.6-0.42c1.53-0.75,3.31-1.83,5.09-1.12c0.83,0.33,1.17,1.15,0.41,1.86
			c-1.42,1.31-3.36,1.71-4.84,2.88c1.92,0.57,3.33-1.53,5.22-1.16c0.39,0.07,1.29,0.43,1.02,1.04c-0.27,0.61-0.63,1.04-1.1,1.51
			c-0.28,0.27-1.77,1.3-0.56,1.18c0.64-0.06,0.67,0.67,0.7,1.06C392.71,200.02,391.91,199.99,391.87,199.47 M390.74,205.36
			c2.01-0.61,1.22-3.08,1.22-3.08c0.94-0.99,6.39-9.42-1.55-13.14c-7.94-3.72-12.03,4.3-12.03,4.3c-2.18,0.22-1.85,2.02-1.49,3.02
			l13.99,8.79C390.89,205.24,390.84,205.28,390.74,205.36"/>
		<path class="st4" d="M326.82,183.15c-1.17,0.91-3.59,3.11-2.55,4.95c1.35,2.39,21.06,14.41,22.84,14.22
			c1.42-0.15,3.43-1.73,3.81-3.87c-0.08,0.03-0.16,0.05-0.24,0.07C349.34,198.83,329.16,186.3,326.82,183.15"/>
		<path class="st3" d="M352.34,193.66c-5.21-1.19-21.56-11.68-22.96-14.44c-0.03-0.06-0.05-0.12-0.07-0.18
			c-1.2,0.61-3.35,1.98-2.67,3.79c0.03,0.09,0.1,0.2,0.19,0.33c2.34,3.15,22.52,15.67,23.85,15.37c0.08-0.02,0.16-0.04,0.24-0.07
			C352.15,198.04,353.91,196.49,352.34,193.66"/>
		<polygon class="st4" points="326.04,119.96 328.99,112.33 326.4,111.18 323.56,118.41 326.04,119.96 		"/>
		<path class="st4" d="M333.11,125.24l6.8-9.72l-1.85-1.4l-8.22,11.02C330.59,125.63,331.64,125.78,333.11,125.24"/>
		<path class="st4" d="M336.01,126.22l4.33-5.34l-1.83-1.62l-4.95,5.8c0.11-0.05,0.23-0.1,0.34-0.16L336.01,126.22"/>
		<path class="st4" d="M335.73,115.38l-1.69-1.65l-5.75,9c0.23,0.82,0.65,1.78,1.46,2.35L335.73,115.38"/>
		<path class="st4" d="M328.21,122.41l6.61-12.94l-2.02-1.5l-6.62,12.09l1.85,1.16C328.04,121.22,328.06,121.73,328.21,122.41
			L328.21,122.41z"/>
		<polyline class="st4" points="344.42,121.55 342.7,119.76 336.15,126.31 338.62,127.86 344.42,121.55 		"/>
		<path class="st3" d="M322.77,117.91l-7.28,15.94l12.84,8.06l11.02-13.59l-0.72-0.45l-2.47-1.55l-0.14-0.09l-2.11-1.32
			c-0.12,0.06-0.23,0.11-0.34,0.16c-0.15,0.07-0.3,0.13-0.45,0.18c-1.48,0.54-2.52,0.39-3.27-0.09c-0.03-0.02-0.07-0.04-0.1-0.07
			c-0.8-0.57-1.23-1.53-1.46-2.35c-0.03-0.11-0.06-0.22-0.08-0.32c-0.15-0.68-0.17-1.19-0.17-1.19l-1.85-1.16l-0.15-0.09l-2.48-1.56
			L322.77,117.91"/>
		<polyline class="st3" points="331.69,143.41 335.77,145.97 338.38,142.62 333.58,139.6 331.69,143.41 		"/>
		<path class="st4" d="M335.77,145.97l-4.08-2.56l1.89-3.8l4.8,3.02L335.77,145.97 M341.04,142.28l-8.16-5.12
			c-0.09-0.05-0.2-0.03-0.26,0.06l-0.71,1.12c-0.05,0.09-0.03,0.2,0.06,0.26l0.95,0.59l-2.17,4.38l5.28,3.31l3-3.86l1.11,0.69
			c0.09,0.05,0.2,0.03,0.26-0.06l0.71-1.12C341.15,142.45,341.13,142.34,341.04,142.28"/>
		<path class="st4" d="M340.49,177.62c0.28,0.18,0.46,0.4,0.4,0.49c-0.06,0.09-0.34,0.03-0.62-0.15c-0.28-0.18-0.46-0.4-0.4-0.49
			C339.93,177.38,340.21,177.44,340.49,177.62 M342.71,179.49c0.28,0.18,0.46,0.4,0.4,0.49c-0.06,0.09-0.34,0.03-0.62-0.15
			c-0.28-0.18-0.46-0.4-0.4-0.49C342.15,179.25,342.43,179.31,342.71,179.49 M344.36,182.03c0.28,0.18,0.46,0.4,0.4,0.49
			c-0.06,0.09-0.34,0.03-0.62-0.15c-0.28-0.18-0.46-0.4-0.4-0.49C343.8,181.78,344.08,181.85,344.36,182.03 M345.57,180.1
			c0.28,0.18,0.46,0.4,0.4,0.49c-0.06,0.09-0.34,0.03-0.62-0.15c-0.28-0.18-0.46-0.4-0.4-0.49
			C345.01,179.86,345.29,179.92,345.57,180.1 M347.27,182.43c0.28,0.18,0.46,0.4,0.4,0.49c-0.06,0.09-0.34,0.03-0.62-0.15
			c-0.28-0.18-0.46-0.4-0.4-0.49C346.71,182.19,346.98,182.25,347.27,182.43 M349.15,182.83c0.28,0.18,0.46,0.4,0.4,0.49
			c-0.06,0.09-0.34,0.03-0.62-0.15c-0.28-0.18-0.46-0.4-0.4-0.49C348.59,182.58,348.87,182.65,349.15,182.83 M352.34,193.66
			c0.7,0.16,1.2,0.15,1.44-0.07c1.98-1.84,0.58-9.24-8.25-14.43c-8.63-5.07-17.11-2.72-16.23-0.13c0.02,0.06,0.04,0.12,0.07,0.18
			C330.77,181.97,347.12,192.47,352.34,193.66"/>
		<path class="st4" d="M357.97,140.62c0.32-0.5,0.72-0.94,1.2-1.32c0.14-0.4,0.54-0.59,0.98-0.63c2.58-1.36,6.34-1.31,9.14,0.04
			c2.18,1.05,2.58,1.94,2.97,4.08c0.04,0.24,0.12,0.46,0.23,0.67c1.1,0.49,1.99,1.38,2.24,2.51c0.69,0.8,1.27,1.81,1.34,3.33
			c0.18,3.75-0.47,7.29-3.45,8.26c-2.98,0.97-5.86,4.54-9.06,4.11c-0.31-0.04-0.62-0.11-0.92-0.21c-0.58,0-1.12-0.2-1.51-0.66
			c-1.37-0.76-2.69-1.88-4.03-2.87c-0.9,0.05-1.74-0.47-2.24-1.27c-0.05-0.08-0.09-0.17-0.13-0.24c-0.05-0.02-0.1-0.05-0.15-0.07
			c-3.05-1.44-3.38-5.44-2.69-8.8S355.97,143.79,357.97,140.62 M357,161.03c6.2,3.89,14.38,2.02,18.27-4.17
			c3.89-6.2,2.02-14.38-4.17-18.27c-6.2-3.89-14.38-2.02-18.27,4.17C348.93,148.96,350.8,157.14,357,161.03"/>
		<path class="st2" d="M360.49,158.3c0.02-0.16,0.02-3.44-0.47-2.64c-0.52,0.84-1.03,1.45-1.88,1.95c-0.35,0.21-0.7,0.31-1.05,0.33
			c1.34,0.99,2.66,2.11,4.03,2.87c-0.18-0.21-0.32-0.47-0.43-0.79C360.5,159.43,360.42,158.92,360.49,158.3"/>
		<path class="st2" d="M365.62,146.06c1.73,0.77,3.13,3.07,1.75,5.52c-1.38,2.45-5.51,3.49-6.77-0.3
			C359.34,147.49,361.98,144.44,365.62,146.06 M360.68,141.42c0.31,0.48,0.87,1.42,0.42,2.01c-0.52,0.69-1.23,1.03-2.12,0.84
			c-0.59-0.27-1.1-0.13-1.54,0.42c0.38,0.22,0.76,0.44,1.14,0.66c0.58,0.33,1.1,0.61,1.58,1.07c0.1,0.09,0.13,0.26,0.09,0.39
			c-0.4,1.27-2.07,1.45-3.26,1.58c-0.34,0.04-1.52,0.13-1.71,0.19c0.19,2.18,0.94,3.02,2.25,2.52c0.24-0.06,0.62-0.12,0.81,0.09
			c0.65,0.72,0.26,1.7-0.16,2.45c-0.27,0.49-0.85,0.84-1.36,1.04c-1.12,0.26-0.94,1.05,0.55,2.37c0.54-0.41,1.09-0.83,1.63-1.24
			c0.25-0.37,0.47-0.76,0.65-1.17c0.1-0.2,0.38-0.23,0.55-0.13c1.47,0.92,1.16,2.31,1.1,3.82c-0.08,1.79,3.09,3.63,3.56,0.78
			c0.34-2.09-0.18-1.29-0.48-2.42c-0.13-0.5-0.22-0.74,0.08-1.22c0.62-0.99,2.81-0.05,3.52,0.21c1.12,0.42,2.5,1.05,3.71,0.62
			c2.79-1,0.94-3.4-0.32-4.11c-0.42-0.25-0.86-0.48-1.3-0.69c-0.21-0.11-0.21-0.37-0.13-0.55c0.67-1.41,1.82-1.79,2.93-2.77
			c2.35-2.08-1-5.81-2.94-3.57c-0.82,0.94-1.81,0.47-2.33-0.51c-0.4-0.76,0.2-1.76,0.21-2.52c-1.01-0.28-1.41-0.19-1.21,0.27
			c0.05,0.19,0.11,0.37,0.16,0.56c0.07,0.24,0.06,0.53-0.02,0.77c-0.29,0.96-1.3,1.09-1.95,0.51c-0.05-0.04-0.08-0.08-0.1-0.13
			c-0.07,0.33-0.66,0.4-0.8-0.01c-0.43-1.24-1.08-2.46-2.09-3.32c-0.61-0.86-1.18-0.74-1.7,0.35
			C360.28,140.85,360.48,141.13,360.68,141.42"/>
		<path class="st2" d="M354.57,156.35c0.05,0.02,0.1,0.05,0.15,0.07c-0.83-1.73,1.76-2.09,2.49-2.91c1.49-1.69-1.47-1.45-2.1-1.6
			c-0.67-0.16-1.08-0.7-1.42-1.23c-0.75-1.16,0.12-2.7,1.4-2.89c1.16-0.17,2.34-0.2,3.47-0.57c1.26-0.41-1.82-1.98-1.97-2.14
			c-0.75-0.78-0.62-1.67,0.5-1.9c0.27-0.06,0.57-0.01,0.84,0.05c1.23,0.28,2.79-0.43,1.81-1.72c-0.46-0.61-0.61-1.11-0.64-1.83
			c0-0.14,0.02-0.27,0.05-0.37c-0.47,0.37-0.88,0.81-1.2,1.32c-1.99,3.17-5.4,3.56-6.09,6.92S351.52,154.91,354.57,156.35
			L354.57,156.35z"/>
		<path class="st2" d="M361.49,138.97c1.57,1.07,2.56,2.62,3.17,4.39l0,0c0.06-0.26,0.43-0.46,0.71-0.22
			c0.28,0.24,0.02-2.88,0.2-3.12c0.48-0.65,0.44-0.64,1.27-0.58c1.52,0.1,1.97,1.45,1.67,2.75c-0.59,1.07-0.25,1.59,1.04,1.56
			c0.11-0.14,0.24-0.26,0.39-0.37c0.14-0.13,0.37-0.23,0.55-0.25c0.73-0.09,1.27,0.03,1.95,0.32c0.02,0.01,0.04,0.02,0.05,0.03
			c-0.11-0.21-0.19-0.43-0.23-0.67c-0.39-2.14-0.79-3.02-2.97-4.08c-2.8-1.35-6.56-1.4-9.14-0.04
			C360.64,138.63,361.18,138.76,361.49,138.97"/>
		<path class="st2" d="M373.4,148.77c-0.38,0.28-1.42,0.95-1.63,1.12c-1.25,1.06-0.97,0.93,0.01,1.61c1.08,0.75,2.51,2.08,2.06,3.6
			c-0.51,1.73-2.07,2.18-3.73,2.06c-1.03-0.08-1.98-0.63-2.96-0.93c-0.63-0.19-2.48-1.03-1.8,0.65c0.22,0.54,0.23,0.57,0.35,1.15
			c0.37,1.88-1.48,3.43-3.07,3.43c0.3,0.09,0.61,0.17,0.92,0.21c3.21,0.43,6.08-3.14,9.06-4.11c2.98-0.97,3.63-4.52,3.45-8.26
			c-0.07-1.52-0.65-2.53-1.34-3.33c0.05,0.22,0.08,0.45,0.08,0.69C374.8,147.45,373.98,148.35,373.4,148.77"/>
		<path class="st5" d="M361.79,140.21c1.01,0.87,1.66,2.08,2.09,3.32c0.14,0.41,0.73,0.35,0.8,0.01c0.02,0.04,0.05,0.09,0.1,0.13
			c0.66,0.58,1.67,0.45,1.95-0.51c0.07-0.24,0.08-0.53,0.02-0.77c-0.05-0.19-0.11-0.37-0.16-0.56c-0.2-0.45,0.2-0.54,1.21-0.27
			c-0.01,0.76-0.61,1.76-0.21,2.52c0.52,0.98,1.51,1.45,2.33,0.51c1.94-2.24,5.29,1.49,2.94,3.57c-1.11,0.98-2.26,1.35-2.93,2.77
			c-0.09,0.18-0.09,0.45,0.13,0.55c0.44,0.21,0.88,0.44,1.3,0.69c1.25,0.7,3.11,3.11,0.32,4.11c-1.22,0.43-2.59-0.19-3.71-0.62
			c-0.71-0.27-2.9-1.2-3.52-0.21c-0.3,0.48-0.21,0.72-0.08,1.22c0.29,1.14,0.82,0.34,0.48,2.42c-0.47,2.86-3.63,1.01-3.56-0.78
			c0.06-1.51,0.37-2.91-1.1-3.82c-0.17-0.11-0.46-0.07-0.55,0.13c-0.18,0.41-0.4,0.8-0.65,1.17c-0.54,0.41-1.09,0.83-1.63,1.24
			c-1.49-1.32-1.67-2.11-0.55-2.37c0.51-0.2,1.08-0.55,1.36-1.04c0.42-0.75,0.81-1.73,0.16-2.45c-0.19-0.21-0.57-0.15-0.81-0.09
			c-1.3,0.51-2.05-0.33-2.25-2.52c0.19-0.06,1.37-0.16,1.71-0.19c1.18-0.13,2.86-0.31,3.26-1.58c0.04-0.13,0.01-0.29-0.09-0.39
			c-0.48-0.46-1-0.73-1.58-1.07c-0.38-0.22-0.76-0.44-1.14-0.66c0.44-0.55,0.96-0.69,1.54-0.42c0.89,0.18,1.6-0.16,2.12-0.84
			c0.45-0.6-0.1-1.53-0.42-2.01c-0.2-0.28-0.39-0.57-0.59-0.85C360.61,139.47,361.18,139.36,361.79,140.21 M359.75,141.51
			c0.97,1.29-0.59,2-1.81,1.72c-0.27-0.06-0.57-0.11-0.84-0.05c-1.13,0.24-1.26,1.12-0.5,1.9c0.03,0.04,0.2,0.14,0.43,0.27
			c0.84,0.51,2.53,1.55,1.54,1.87c-1.13,0.37-2.31,0.4-3.47,0.57c-1.28,0.19-2.15,1.73-1.4,2.89c0.34,0.53,0.76,1.07,1.42,1.23
			c0.63,0.15,3.59-0.09,2.1,1.6c-0.73,0.82-3.31,1.18-2.49,2.91c0.04,0.08,0.08,0.16,0.13,0.24c0.49,0.8,1.34,1.31,2.24,1.27
			c0.35-0.02,0.7-0.12,1.05-0.33c0.85-0.51,1.36-1.11,1.88-1.95c0.49-0.8,0.49,2.49,0.47,2.64c-0.07,0.62,0.02,1.13,0.2,1.71
			c0.1,0.32,0.25,0.58,0.43,0.79c0.39,0.46,0.93,0.67,1.51,0.66c1.59,0,3.44-1.55,3.07-3.43c-0.11-0.58-0.13-0.6-0.35-1.15
			c-0.68-1.68,1.18-0.84,1.8-0.65c0.97,0.3,1.92,0.85,2.96,0.93c1.67,0.13,3.23-0.32,3.73-2.06c0.44-1.52-0.98-2.86-2.06-3.6
			c-0.98-0.68-1.26-0.55-0.01-1.61c0.21-0.18,1.24-0.85,1.63-1.12c0.58-0.42,1.4-1.32,1.41-2.11c0-0.24-0.03-0.47-0.08-0.69
			c-0.26-1.13-1.15-2.02-2.24-2.51c-0.02-0.01-0.04-0.02-0.05-0.03c-0.68-0.29-1.22-0.4-1.95-0.32c-0.19,0.02-0.41,0.13-0.55,0.25
			c-0.15,0.11-0.27,0.23-0.39,0.37c-1.29,0.03-1.63-0.49-1.04-1.56c0.3-1.3-0.15-2.65-1.67-2.75c-0.83-0.05-0.79-0.07-1.27,0.58
			c-0.18,0.24,0.08,3.37-0.2,3.12c-0.27-0.24-0.65-0.04-0.71,0.22l0,0c-0.61-1.77-1.6-3.32-3.17-4.39c-0.31-0.21-0.86-0.34-1.35-0.3
			c-0.44,0.04-0.84,0.23-0.98,0.63c-0.04,0.11-0.06,0.23-0.05,0.37C359.14,140.4,359.29,140.9,359.75,141.51"/>
		<path class="st6" d="M345.35,180.44c0.28,0.18,0.56,0.24,0.62,0.15c0.06-0.09-0.12-0.31-0.4-0.49c-0.28-0.18-0.56-0.24-0.62-0.15
			C344.89,180.04,345.07,180.26,345.35,180.44"/>
		<path class="st6" d="M342.5,179.83c0.28,0.18,0.56,0.24,0.62,0.15c0.06-0.09-0.12-0.31-0.4-0.49c-0.28-0.18-0.56-0.24-0.62-0.15
			C342.03,179.43,342.22,179.65,342.5,179.83L342.5,179.83z"/>
		<path class="st6" d="M340.27,177.96c0.28,0.18,0.56,0.24,0.62,0.15c0.06-0.09-0.12-0.31-0.4-0.49c-0.28-0.18-0.56-0.24-0.62-0.15
			C339.81,177.56,339.99,177.78,340.27,177.96L340.27,177.96z"/>
		<path class="st6" d="M348.94,183.17c0.28,0.18,0.56,0.24,0.62,0.15c0.06-0.09-0.12-0.31-0.4-0.49s-0.56-0.24-0.62-0.15
			C348.48,182.77,348.66,182.99,348.94,183.17"/>
		<path class="st6" d="M347.05,182.77c0.28,0.18,0.56,0.24,0.62,0.15c0.06-0.09-0.12-0.31-0.4-0.49s-0.56-0.24-0.62-0.15
			C346.59,182.37,346.77,182.59,347.05,182.77"/>
		<path class="st6" d="M344.14,182.37c0.28,0.18,0.56,0.24,0.62,0.15c0.06-0.09-0.12-0.31-0.4-0.49c-0.28-0.18-0.56-0.24-0.62-0.15
			C343.68,181.97,343.86,182.19,344.14,182.37"/>
		<path class="st4" d="M395.05,170.08c3.46-0.79,4.22,3.48,1.54,4.53C393.92,175.66,392.21,170.73,395.05,170.08 M400.24,169.55
			c-1.49,1.43-2.35,0.11-1.81-0.9C399.21,167.24,401.74,168.12,400.24,169.55 M403.59,163.47c3.52-0.51,4.9,3.91,1.65,5.3
			C401.99,170.17,400.53,163.92,403.59,163.47 M406.02,169.98c1.11-0.25,1.84,1.04,0.74,1.65
			C405.67,172.25,404.91,170.23,406.02,169.98 M404.9,180.07c-3.12,1.95-4.68-2.72-2.39-3.75
			C404.5,175.42,408.03,178.11,404.9,180.07 M399.32,177.63c-0.91,0.5-1.52-0.85-0.9-1.4C399.21,175.54,400.23,177.13,399.32,177.63
			 M387.46,170.65c1.08,0.92,2.38,4.7,8.76,8.7c4.28,2.69,10.41,4.2,11.74,4.68c0.5-4.21,2.88-24.88,1.53-25.62
			c-0.8-0.44-17.67,9.46-22.15,12.15C387.38,170.59,387.42,170.62,387.46,170.65"/>
		<path class="st6" d="M408.08,184.07c-0.03-0.01-0.07-0.03-0.11-0.04c-1.33-0.47-7.46-1.99-11.74-4.68c-6.38-4-7.68-7.79-8.76-8.7
			c-0.04-0.03-0.08-0.06-0.12-0.09c-1.09-0.72-2.79,0.8-2.86,2.01c-0.08,1.26,3.08,6.8,9.37,10.75c6.29,3.95,12.93,4.33,14.04,4.07
			C409,187.14,409.12,184.49,408.08,184.07"/>
		<path class="st3" d="M396.59,174.61c2.67-1.05,1.92-5.32-1.54-4.53C392.21,170.73,393.92,175.66,396.59,174.61L396.59,174.61z"/>
		<path class="st3" d="M400.24,169.55c1.49-1.43-1.04-2.31-1.81-0.9C397.89,169.66,398.75,170.99,400.24,169.55L400.24,169.55z"/>
		<path class="st3" d="M405.24,168.78c3.25-1.4,1.88-5.82-1.65-5.3C400.53,163.92,401.99,170.17,405.24,168.78"/>
		<path class="st3" d="M406.76,171.63c1.1-0.61,0.37-1.9-0.74-1.65C404.91,170.23,405.67,172.25,406.76,171.63"/>
		<path class="st3" d="M402.52,176.31c-2.3,1.03-0.74,5.7,2.39,3.75C408.03,178.11,404.5,175.42,402.52,176.31"/>
		<path class="st3" d="M398.42,176.23c-0.62,0.54,0,1.89,0.9,1.4C400.23,177.13,399.21,175.54,398.42,176.23"/>
		<path class="st4" d="M390.89,205.24l-13.99-8.79l-0.07-0.04c0,0-5.53,24.66-5.43,24.25c0.1-0.39,17.53-13.91,19.34-15.31
			C390.84,205.28,390.89,205.24,390.89,205.24"/>
		<path class="st5" d="M391.98,198.44c-1.21,0.11,0.29-0.91,0.56-1.18c0.47-0.47,0.83-0.9,1.1-1.51c0.27-0.61-0.63-0.97-1.02-1.04
			c-1.89-0.36-3.3,1.73-5.22,1.16c1.48-1.17,3.43-1.57,4.84-2.88c0.77-0.71,0.42-1.53-0.41-1.86c-1.78-0.71-3.56,0.37-5.09,1.12
			c-0.44,0.21-4.44,1.6-2.6,0.42c1.27-0.81,2.54-1.62,3.82-2.44c0.21-0.14,0.3-0.42,0.11-0.63c-1.27-1.37-3.49-0.09-4.95,0.36
			c-0.49,0.15-0.32,0.94,0.18,0.78c0.75-0.23,2.66-1.12,3.71-0.86c-1.5,0.96-3,1.92-4.5,2.88c-0.15,0.1-0.25,0.26-0.21,0.45
			c0.46,1.96,3.74,0.21,4.82-0.26c0.85-0.37,1.58-0.85,2.48-1.11c0.67-0.15,1.34-0.13,2.01,0.05c-0.07,0.74-0.46,1.22-1.19,1.44
			c-1.39,0.81-2.87,1.19-4.03,2.35c-0.17,0.17-0.18,0.51,0.06,0.64c0.92,0.5,1.64,0.51,2.65,0.29c0.35-0.08,0.93-0.35,1.26-0.5
			c0.63-0.5,1.07-0.26,1.32,0.73c-0.19,0.07-0.36,0.16-0.51,0.28c-0.55,0.4-0.86,0.85-0.7,1.56c0.08,0.33,0.52,0.48,0.89,0.58
			c0.28,0.08,0.52,0.13,0.53,0.21c0.03,0.51,0.84,0.54,0.8,0.03C392.65,199.1,392.62,198.38,391.98,198.44"/>
		<path class="st5" d="M315.22,163.07l-10.23,11.06l-7.25-4.56l5.62-13.87c0.99,0.13,2.21,0.8,3.07,3.05
			C307.98,162.81,312.78,163.2,315.22,163.07 M305.32,150.59l-1.33-0.8l-9.09,22.27l9.18,5.77l16.44-18.12l-13.69-8.2L305.32,150.59
			"/>
		<path class="st3" d="M303.35,155.7l-5.62,13.87l7.25,4.56l10.23-11.06c-2.43,0.13-7.24-0.26-8.8-4.32
			C305.56,156.5,304.33,155.83,303.35,155.7"/>
		<g>
			<defs>
				<path id="SVGID_5_" d="M407.97,183.95c0-0.02,0-0.04,0.01-0.06C407.98,183.91,407.97,183.93,407.97,183.95 M402.49,180.26
					L402.49,180.26C402.49,180.26,402.49,180.26,402.49,180.26C402.49,180.26,402.49,180.26,402.49,180.26 M402.49,180.26
					c-1.31-0.82-1.55-3.24,0.03-3.94l0,0l0,0C400.94,177.02,401.18,179.43,402.49,180.26 M398.59,177.63L398.59,177.63
					C398.59,177.63,398.59,177.63,398.59,177.63C398.59,177.63,398.59,177.63,398.59,177.63 M398.59,177.63
					c-0.43-0.27-0.59-1-0.19-1.38C398,176.63,398.16,177.36,398.59,177.63 M399.31,177.64
					C399.31,177.64,399.31,177.64,399.31,177.64C399.31,177.64,399.31,177.64,399.31,177.64 M399.32,177.63
					C399.32,177.63,399.32,177.63,399.32,177.63C399.32,177.63,399.32,177.63,399.32,177.63 M399.33,177.62
					c0.6-0.34,0.34-1.16-0.13-1.45C399.67,176.47,399.93,177.29,399.33,177.62 M398.4,176.25
					C398.4,176.25,398.4,176.25,398.4,176.25C398.4,176.25,398.4,176.25,398.4,176.25 M398.4,176.25
					C398.4,176.25,398.41,176.24,398.4,176.25C398.41,176.24,398.4,176.25,398.4,176.25 M398.41,176.24
					C398.41,176.24,398.41,176.24,398.41,176.24C398.41,176.24,398.41,176.24,398.41,176.24 M398.42,176.23L398.42,176.23
					C398.42,176.23,398.42,176.23,398.42,176.23C398.42,176.23,398.42,176.23,398.42,176.23L398.42,176.23 M404.87,180.09
					C404.87,180.09,404.87,180.09,404.87,180.09C404.87,180.09,404.87,180.09,404.87,180.09 M404.88,180.08
					c0.01,0,0.01-0.01,0.02-0.01C404.9,180.07,404.89,180.07,404.88,180.08 M404.9,180.07c0.01,0,0.01-0.01,0.02-0.01
					C404.92,180.06,404.91,180.06,404.9,180.07 M404.93,180.05c0.01,0,0.01-0.01,0.02-0.01
					C404.94,180.04,404.93,180.05,404.93,180.05 M404.95,180.04C404.95,180.03,404.95,180.03,404.95,180.04
					C404.95,180.03,404.95,180.03,404.95,180.04 M404.96,180.03c1.85-1.19,1.26-2.65,0.07-3.39
					C406.22,177.38,406.81,178.84,404.96,180.03 M399.2,176.17C399.2,176.17,399.2,176.17,399.2,176.17L399.2,176.17
					C399.2,176.17,399.2,176.17,399.2,176.17 M405.03,176.63C405.03,176.63,405.03,176.63,405.03,176.63L405.03,176.63
					C405.03,176.63,405.03,176.63,405.03,176.63 M405.97,171.63L405.97,171.63L405.97,171.63L405.97,171.63 M405.96,171.63
					c-0.57-0.36-0.75-1.44,0.03-1.64C405.22,170.19,405.4,171.27,405.96,171.63 M406.75,171.64c0,0,0.01-0.01,0.01-0.01
					C406.76,171.63,406.75,171.64,406.75,171.64 M406.78,171.62C406.79,171.62,406.79,171.62,406.78,171.62
					C406.79,171.62,406.79,171.62,406.78,171.62 M406.79,171.61c0.73-0.43,0.6-1.18,0.08-1.5
					C407.4,170.44,407.53,171.18,406.79,171.61 M403.3,168.68L403.3,168.68C403.3,168.68,403.3,168.68,403.3,168.68
					C403.3,168.68,403.3,168.68,403.3,168.68 M403.3,168.68c-0.06-0.04-0.11-0.08-0.17-0.12l0,0
					C403.18,168.6,403.24,168.64,403.3,168.68 M406.01,169.98c0.01,0,0.01,0,0.02,0l0,0l0,0
					C406.02,169.98,406.01,169.98,406.01,169.98 M406.88,170.11C406.88,170.11,406.88,170.11,406.88,170.11L406.88,170.11
					C406.88,170.11,406.88,170.11,406.88,170.11 M405.24,168.78c0.01,0,0.01-0.01,0.02-0.01
					C405.25,168.77,405.24,168.77,405.24,168.78 M405.27,168.76c2.31-1.02,2.24-3.58,0.71-4.74l0,0
					C407.51,165.18,407.58,167.74,405.27,168.76"/>
			</defs>
			<clipPath id="SVGID_6_">
				<use xlink:href="#SVGID_5_"  style="overflow:visible;"/>
			</clipPath>
			
				<rect x="399.05" y="167.81" transform="matrix(0.5319 -0.8468 0.8468 0.5319 43.1822 426.0613)" class="st7" width="15.82" height="12.34"/>
		</g>
		<path class="st8" d="M396.32,179.41l6.81-10.85c0.05,0.04,0.11,0.08,0.17,0.12c0,0,0,0,0,0l0,0l0,0c0,0,0,0,0,0
			c0.53,0.33,1.18,0.42,1.94,0.09l0,0c0.01,0,0.01-0.01,0.02-0.01c0,0,0.01,0,0.01-0.01c2.31-1.02,2.24-3.58,0.71-4.74l3.52-5.61
			c0,0,0,0,0,0c1.31,0.82-0.99,20.98-1.53,25.47c0,0.02,0,0.04-0.01,0.06c0,0.03-0.01,0.05-0.01,0.08
			C406.64,183.56,400.59,182.07,396.32,179.41 M402.49,180.26L402.49,180.26C402.49,180.26,402.49,180.26,402.49,180.26
			c0.59,0.37,1.41,0.42,2.38-0.17c0,0,0,0,0,0c0,0,0.01,0,0.01-0.01c0.01,0,0.01-0.01,0.02-0.01l0,0l0,0c0.01,0,0.01-0.01,0.02-0.01
			c0,0,0,0,0.01,0c0.01,0,0.01-0.01,0.02-0.01c0,0,0,0,0,0c0,0,0,0,0.01,0c0,0,0,0,0.01,0c1.85-1.19,1.26-2.65,0.07-3.39
			c0,0,0,0,0,0l0,0l0,0c0,0,0,0,0,0c-0.75-0.47-1.75-0.66-2.51-0.32l0,0C400.94,177.02,401.18,179.43,402.49,180.26
			C402.49,180.26,402.49,180.26,402.49,180.26L402.49,180.26 M398.59,177.63L398.59,177.63
			C398.59,177.63,398.59,177.63,398.59,177.63c0.19,0.12,0.44,0.15,0.72,0c0,0,0,0,0,0c0,0,0.01,0,0.01,0c0,0,0,0,0.01,0l0,0
			c0,0,0,0,0,0c0.6-0.34,0.34-1.16-0.13-1.45c0,0,0,0,0,0l0,0l0,0c0,0,0,0,0,0c-0.23-0.14-0.51-0.16-0.77,0.06c0,0,0,0-0.01,0l0,0
			c0,0,0,0-0.01,0c0,0,0,0-0.01,0.01c0,0,0,0,0,0c0,0,0,0-0.01,0.01c0,0,0,0,0,0c0,0,0,0,0,0c0,0,0,0,0,0
			C398,176.63,398.16,177.36,398.59,177.63C398.59,177.63,398.59,177.63,398.59,177.63L398.59,177.63 M405.97,171.63L405.97,171.63
			L405.97,171.63c0.22,0.14,0.49,0.17,0.78,0.01c0,0,0.01-0.01,0.01-0.01l0,0c0.01,0,0.01-0.01,0.02-0.01c0,0,0,0,0,0
			c0,0,0,0,0.01,0c0.73-0.43,0.6-1.18,0.08-1.5c0,0,0,0,0,0l0,0l0,0c0,0,0,0,0,0c-0.23-0.14-0.52-0.2-0.85-0.13l0,0
			c-0.01,0-0.01,0-0.02,0c0,0-0.01,0-0.01,0C405.22,170.19,405.4,171.27,405.97,171.63C405.96,171.63,405.96,171.63,405.97,171.63
			L405.97,171.63"/>
		<path class="st9" d="M393.86,183.32l2.46-3.91c4.28,2.65,10.33,4.15,11.65,4.62l0,0c0.04,0.02,0.08,0.03,0.11,0.04
			c0.04,0.02,0.08,0.04,0.12,0.06c0.91,0.57,0.75,3.01-0.31,3.26C406.78,187.65,400.15,187.27,393.86,183.32"/>
		<path class="st10" d="M403.3,168.68C403.3,168.68,403.3,168.68,403.3,168.68c-0.06-0.04-0.12-0.08-0.17-0.12l2.85-4.54
			c1.53,1.16,1.6,3.72-0.71,4.74c0,0-0.01,0-0.01,0.01c-0.01,0-0.01,0.01-0.02,0.01l0,0C404.48,169.1,403.83,169.01,403.3,168.68
			C403.3,168.68,403.3,168.68,403.3,168.68L403.3,168.68"/>
		<path class="st10" d="M405.97,171.63C405.96,171.63,405.96,171.63,405.97,171.63c-0.57-0.36-0.75-1.44,0.03-1.65
			c0,0,0.01,0,0.01,0c0.01,0,0.01,0,0.02,0l0,0c0.33-0.08,0.63-0.01,0.85,0.13c0,0,0,0,0,0l0,0c0,0,0,0,0,0
			c0.52,0.33,0.65,1.07-0.08,1.5c0,0,0,0-0.01,0c0,0,0,0,0,0c-0.01,0-0.01,0.01-0.02,0.01l0,0c0,0-0.01,0.01-0.01,0.01
			C406.45,171.8,406.18,171.77,405.97,171.63L405.97,171.63L405.97,171.63"/>
		<path class="st10" d="M402.49,180.26C402.49,180.26,402.49,180.26,402.49,180.26c-1.31-0.82-1.55-3.24,0.03-3.95l0,0
			c0.76-0.34,1.76-0.15,2.51,0.32c0,0,0,0,0,0l0,0c0,0,0,0,0,0c1.19,0.75,1.78,2.2-0.07,3.39c0,0,0,0-0.01,0c0,0,0,0-0.01,0
			c0,0,0,0,0,0c-0.01,0-0.01,0.01-0.02,0.01c0,0,0,0-0.01,0c-0.01,0-0.01,0.01-0.02,0.01l0,0l0,0c-0.01,0-0.01,0.01-0.02,0.01
			c0,0-0.01,0-0.01,0.01c0,0,0,0,0,0C403.9,180.68,403.09,180.63,402.49,180.26C402.49,180.26,402.49,180.26,402.49,180.26
			L402.49,180.26"/>
		<path class="st10" d="M398.59,177.63C398.59,177.63,398.59,177.63,398.59,177.63c-0.43-0.27-0.59-1-0.19-1.38c0,0,0,0,0,0
			c0,0,0,0,0,0c0,0,0,0,0,0c0,0,0,0,0.01-0.01c0,0,0,0,0,0c0,0,0,0,0.01-0.01c0,0,0,0,0.01,0l0,0c0,0,0,0,0.01,0
			c0.26-0.22,0.54-0.2,0.77-0.06c0,0,0,0,0,0l0,0c0,0,0,0,0,0c0.47,0.3,0.73,1.12,0.13,1.45c0,0,0,0,0,0l0,0c0,0,0,0-0.01,0
			c0,0-0.01,0-0.01,0c0,0,0,0,0,0C399.03,177.78,398.78,177.75,398.59,177.63C398.59,177.63,398.59,177.63,398.59,177.63
			L398.59,177.63"/>
		<path class="st11" d="M357,161.03C357,161.03,357,161.03,357,161.03C357,161.03,357,161.03,357,161.03
			C357,161.03,357,161.03,357,161.03 M361.54,161.17L361.54,161.17C361.54,161.17,361.54,161.17,361.54,161.17
			C361.54,161.17,361.54,161.17,361.54,161.17 M361.54,161.17c-0.15-0.09-0.29-0.21-0.41-0.35
			C361.26,160.96,361.39,161.08,361.54,161.17 M360.53,160.45L360.53,160.45C360.53,160.45,360.53,160.45,360.53,160.45
			C360.53,160.45,360.53,160.45,360.53,160.45 M360.53,160.45c-0.79-0.49-1.56-1.08-2.33-1.67l0,0
			C358.97,159.37,359.74,159.96,360.53,160.45 M361.1,160.79C361.1,160.79,361.1,160.79,361.1,160.79
			C361.1,160.79,361.1,160.79,361.1,160.79 M362.61,161.46C362.62,161.46,362.62,161.46,362.61,161.46
			C362.62,161.46,362.62,161.46,362.61,161.46 M362.46,160.25L362.46,160.25C362.46,160.25,362.46,160.25,362.46,160.25
			C362.46,160.25,362.46,160.25,362.46,160.25 M362.46,160.25c-0.66-0.42-1.19-1.16-1.17-1.9
			C361.27,159.09,361.8,159.83,362.46,160.25 M360.49,158.29C360.49,158.29,360.49,158.29,360.49,158.29
			C360.49,158.29,360.49,158.29,360.49,158.29 M360.49,158.29C360.49,158.29,360.49,158.29,360.49,158.29
			C360.49,158.29,360.49,158.29,360.49,158.29 M361.29,158.34C361.29,158.34,361.29,158.33,361.29,158.34
			C361.29,158.33,361.29,158.34,361.29,158.34 M361.29,158.32L361.29,158.32c0-0.01,0-0.01,0-0.02
			C361.29,158.31,361.29,158.32,361.29,158.32L361.29,158.32 M361.29,158.3c0,0,0-0.01,0-0.01
			C361.29,158.29,361.29,158.3,361.29,158.3 M361.29,158.26c0.06-1.3,0.28-2.51-0.63-3.4l0,0
			C361.58,155.75,361.35,156.96,361.29,158.26 M364.84,159.13C364.84,159.13,364.84,159.13,364.84,159.13
			C364.84,159.13,364.84,159.13,364.84,159.13 M364.84,159.12C364.84,159.11,364.84,159.11,364.84,159.12
			C364.84,159.11,364.84,159.11,364.84,159.12 M364.84,159.11C364.84,159.1,364.85,159.1,364.84,159.11
			C364.85,159.1,364.84,159.1,364.84,159.11 M364.45,155.46L364.45,155.46c0.62-0.99,2.81-0.05,3.52,0.21
			c1.12,0.42,2.5,1.05,3.71,0.62c0,0,0.01,0,0.01,0c0,0-0.01,0-0.01,0c-1.22,0.43-2.59-0.19-3.71-0.62
			C367.26,155.4,365.06,154.47,364.45,155.46 M371.71,156.28c2.64-0.97,1.03-3.22-0.21-4.01
			C372.73,153.05,374.35,155.31,371.71,156.28 M374.93,155.73c1.01-1.61,1.25-3.98,1.13-6.43c-0.07-1.52-0.65-2.53-1.34-3.33
			c0.05,0.22,0.08,0.45,0.08,0.69c0,0.32-0.14,0.66-0.34,0.97c0.2-0.32,0.33-0.65,0.34-0.97c0-0.24-0.03-0.47-0.08-0.69
			c0-0.01,0-0.01,0-0.02c0,0.01,0,0.01,0,0.02c0.69,0.8,1.27,1.81,1.34,3.33C376.18,151.75,375.94,154.12,374.93,155.73
			 M370.03,151.48L370.03,151.48L370.03,151.48L370.03,151.48 M370.03,151.48c-0.18-0.11-0.18-0.35-0.1-0.53
			C369.85,151.13,369.85,151.37,370.03,151.48 M371.36,152.18C371.36,152.18,371.36,152.19,371.36,152.18
			C371.36,152.19,371.36,152.18,371.36,152.18 M371.36,152.19C371.37,152.19,371.37,152.19,371.36,152.19
			C371.37,152.19,371.37,152.19,371.36,152.19 M371.37,152.19C371.37,152.19,371.38,152.19,371.37,152.19
			C371.38,152.19,371.37,152.19,371.37,152.19 M371.38,152.2C371.38,152.2,371.38,152.2,371.38,152.2
			C371.38,152.2,371.38,152.2,371.38,152.2 M371.39,152.2C371.39,152.2,371.39,152.2,371.39,152.2
			C371.39,152.2,371.39,152.2,371.39,152.2 M371.4,152.21C371.4,152.21,371.4,152.21,371.4,152.21
			C371.4,152.21,371.4,152.21,371.4,152.21 M371.4,152.21C371.4,152.21,371.41,152.21,371.4,152.21
			C371.41,152.21,371.4,152.21,371.4,152.21 M371.41,152.21C371.41,152.22,371.41,152.22,371.41,152.21
			C371.41,152.22,371.41,152.22,371.41,152.21 M371.42,152.22C371.42,152.22,371.42,152.22,371.42,152.22
			C371.42,152.22,371.42,152.22,371.42,152.22 M371.43,152.22C371.43,152.22,371.43,152.23,371.43,152.22
			C371.43,152.23,371.43,152.22,371.43,152.22 M371.43,152.23C371.44,152.23,371.44,152.23,371.43,152.23
			C371.44,152.23,371.44,152.23,371.43,152.23 M371.44,152.23C371.44,152.23,371.45,152.23,371.44,152.23
			C371.45,152.23,371.44,152.23,371.44,152.23 M371.45,152.24C371.45,152.24,371.45,152.24,371.45,152.24
			C371.45,152.24,371.45,152.24,371.45,152.24 M371.46,152.24C371.46,152.24,371.46,152.24,371.46,152.24
			C371.46,152.24,371.46,152.24,371.46,152.24 M371.46,152.25C371.47,152.25,371.47,152.25,371.46,152.25
			C371.47,152.25,371.47,152.25,371.46,152.25 M371.47,152.25C371.47,152.25,371.48,152.25,371.47,152.25L371.47,152.25
			C371.48,152.25,371.47,152.25,371.47,152.25 M369.93,150.95C369.93,150.95,369.93,150.94,369.93,150.95
			C369.93,150.94,369.93,150.95,369.93,150.95 M370.16,150.53c0.68-1.08,1.71-1.48,2.7-2.35c0,0,0.01-0.01,0.01-0.01
			c0,0-0.01,0.01-0.01,0.01C371.86,149.05,370.84,149.44,370.16,150.53 M372.88,148.16c1.41-1.27,0.71-3.15-0.49-3.91
			C373.59,145,374.29,146.88,372.88,148.16 M368.31,144.92L368.31,144.92C368.31,144.92,368.31,144.92,368.31,144.92
			C368.31,144.92,368.31,144.92,368.31,144.92 M368.31,144.92c-0.28-0.17-0.52-0.45-0.71-0.79
			C367.79,144.47,368.03,144.75,368.31,144.92 M367.6,144.13c0-0.01-0.01-0.01-0.01-0.02C367.59,144.12,367.6,144.12,367.6,144.13
			 M367.59,144.11C367.59,144.1,367.58,144.1,367.59,144.11C367.58,144.1,367.59,144.1,367.59,144.11 M369.89,144.63
			C369.89,144.63,369.89,144.63,369.89,144.63C369.89,144.63,369.89,144.63,369.89,144.63 M369.9,144.63
			C369.9,144.63,369.9,144.62,369.9,144.63C369.9,144.62,369.9,144.63,369.9,144.63 M369.9,144.62
			C369.9,144.62,369.91,144.62,369.9,144.62C369.91,144.62,369.9,144.62,369.9,144.62 M369.91,144.61
			C369.91,144.61,369.91,144.61,369.91,144.61C369.91,144.61,369.91,144.61,369.91,144.61 M369.91,144.61
			C369.92,144.61,369.92,144.6,369.91,144.61C369.92,144.6,369.92,144.61,369.91,144.61 M369.93,144.59
			C369.93,144.59,369.93,144.59,369.93,144.59C369.93,144.59,369.93,144.59,369.93,144.59 M368.5,143.55L368.5,143.55
			C368.5,143.55,368.51,143.55,368.5,143.55C368.51,143.55,368.5,143.55,368.5,143.55 M368.5,143.55c-0.26-0.16-0.34-0.42-0.25-0.79
			l0,0C368.17,143.12,368.25,143.39,368.5,143.55 M369.47,143.74c0.02,0,0.04,0,0.06,0C369.51,143.74,369.49,143.74,369.47,143.74
			 M369.54,143.74L369.54,143.74c0.11-0.14,0.24-0.26,0.39-0.37c0.14-0.13,0.37-0.23,0.55-0.25c0.73-0.09,1.27,0.03,1.95,0.32
			c0.02,0.01,0.04,0.02,0.05,0.03c-0.11-0.21-0.19-0.43-0.23-0.67c0-0.01,0-0.03-0.01-0.04c0,0.01,0,0.03,0.01,0.04
			c0.04,0.24,0.12,0.46,0.23,0.67c0,0,0.01,0,0.01,0.01c0,0-0.01,0-0.01-0.01c-0.02-0.01-0.04-0.02-0.05-0.03
			c-0.68-0.29-1.22-0.4-1.95-0.32c-0.19,0.02-0.41,0.13-0.55,0.25C369.78,143.48,369.65,143.6,369.54,143.74L369.54,143.74
			 M374.71,145.91c-0.22-0.89-0.84-1.64-1.64-2.14C373.87,144.28,374.49,145.02,374.71,145.91 M372.39,144.24
			C372.39,144.25,372.39,144.25,372.39,144.24L372.39,144.24C372.39,144.25,372.39,144.25,372.39,144.24 M373.07,143.77
			C373.07,143.77,373.07,143.77,373.07,143.77L373.07,143.77C373.07,143.77,373.07,143.77,373.07,143.77 M372.24,142.74
			c-0.31-1.67-0.63-2.57-1.84-3.39l0,0C371.61,140.17,371.93,141.06,372.24,142.74 M371.09,138.59
			C371.09,138.59,371.09,138.59,371.09,138.59L371.09,138.59C371.09,138.59,371.09,138.59,371.09,138.59"/>
		<path class="st8" d="M357,161.03C357,161.03,357,161.03,357,161.03c-0.06-0.04-0.11-0.07-0.16-0.1l1.36-2.16
			c0.77,0.59,1.54,1.18,2.33,1.67c0,0,0,0,0,0l0,0l0,0c0,0,0,0,0,0c0.19,0.12,0.38,0.23,0.57,0.34c0,0,0,0,0.01,0
			c0,0,0.01,0.01,0.01,0.01l0,0c0,0.01,0.01,0.01,0.01,0.02c0.12,0.14,0.26,0.26,0.41,0.35c0,0,0,0,0,0l0,0l0,0c0,0,0,0,0,0
			c0.32,0.2,0.69,0.29,1.07,0.29c0,0,0,0,0.01,0c0,0,0.01,0,0.01,0l0,0c0.3,0.09,0.61,0.17,0.92,0.21c3.21,0.43,6.08-3.14,9.06-4.11
			c1.03-0.34,1.78-0.98,2.32-1.83c1.01-1.61,1.25-3.98,1.13-6.43c-0.07-1.52-0.65-2.53-1.34-3.33c0-0.01,0-0.01,0-0.02
			c0-0.01-0.01-0.03-0.01-0.04c-0.22-0.89-0.84-1.64-1.64-2.14c0,0,0,0,0,0l0,0l0,0c0,0,0,0,0,0c-0.18-0.11-0.37-0.22-0.57-0.31
			c0,0-0.01,0-0.01-0.01c-0.11-0.21-0.19-0.43-0.23-0.67c0-0.01,0-0.03-0.01-0.04c0-0.01,0-0.01,0-0.02
			c-0.31-1.67-0.63-2.57-1.84-3.39l0.54-0.85c0.05,0.03,0.1,0.06,0.15,0.09c0,0,0,0,0.01,0c6.2,3.89,8.07,12.07,4.17,18.27
			c-0.51,0.81-1.09,1.55-1.73,2.21C369.27,163.45,362.39,164.42,357,161.03"/>
		<path class="st12" d="M360.53,160.45C360.53,160.45,360.53,160.45,360.53,160.45c-0.79-0.49-1.56-1.08-2.33-1.68l2.02-3.22
			c0.28,0.28,0.28,2.52,0.27,2.73c0,0,0,0,0,0c0,0,0,0,0,0c0,0,0,0,0,0c0,0,0,0,0,0c-0.07,0.62,0.02,1.13,0.2,1.71
			c0.1,0.32,0.25,0.58,0.43,0.79c0,0-0.01-0.01-0.01-0.01c0,0,0,0-0.01,0C360.91,160.68,360.72,160.57,360.53,160.45
			C360.53,160.45,360.53,160.45,360.53,160.45L360.53,160.45"/>
		<path class="st12" d="M362.46,160.25C362.46,160.25,362.46,160.25,362.46,160.25c-0.66-0.42-1.19-1.16-1.17-1.9c0,0,0,0,0-0.01
			c0,0,0,0,0-0.01c0,0,0-0.01,0-0.01l0,0c0-0.01,0-0.01,0-0.02c0,0,0,0,0,0c0,0,0-0.01,0-0.01c0-0.01,0-0.02,0-0.03
			c0.06-1.3,0.28-2.51-0.63-3.4l0.67-1.07c0.05,0.03,0.1,0.07,0.16,0.1c2.25,1.42,5.23,0.74,6.64-1.52
			c1.42-2.25,0.74-5.23-1.52-6.64c-0.05-0.03-0.11-0.06-0.16-0.1l1.06-1.69c0.02,0.05,0.04,0.11,0.07,0.16l0,0c0,0,0,0,0,0.01
			c0,0,0,0.01,0,0.01c0,0.01,0.01,0.01,0.01,0.02c0,0,0,0,0,0c0.19,0.34,0.43,0.62,0.71,0.79c0,0,0,0,0,0l0,0l0,0c0,0,0,0,0,0
			c0.49,0.31,1.07,0.28,1.58-0.29c0,0,0,0,0,0c0,0,0,0,0,0c0,0,0,0,0,0c0,0,0,0,0,0c0,0,0,0,0-0.01c0,0,0,0,0,0c0,0,0,0,0.01-0.01
			l0,0l0,0c0,0,0-0.01,0.01-0.01c0,0,0,0,0-0.01c0,0,0,0,0,0c0.75-0.85,1.7-0.82,2.46-0.35c0,0,0,0,0,0c0,0,0,0,0,0
			c1.2,0.76,1.9,2.64,0.49,3.91c0,0-0.01,0.01-0.01,0.01c0,0-0.01,0.01-0.01,0.01c-0.99,0.88-2.02,1.27-2.7,2.35
			c-0.08,0.13-0.16,0.27-0.23,0.41l0,0c0,0,0,0,0,0.01c0,0,0,0,0,0c-0.08,0.17-0.08,0.41,0.1,0.53c0,0,0,0,0,0l0,0l0,0l0,0
			c0.01,0.01,0.02,0.01,0.03,0.02c0.44,0.21,0.88,0.44,1.3,0.69l0,0c0,0,0,0,0.01,0l0,0c0,0,0,0,0.01,0c0,0,0,0,0,0c0,0,0,0,0.01,0
			c0,0,0,0,0,0c0,0,0,0,0.01,0c0,0,0,0,0,0c0,0,0,0,0.01,0c0,0,0,0,0,0c0,0,0,0,0,0c0,0,0,0,0,0c0,0,0,0,0,0c0,0,0,0,0,0
			c0,0,0,0,0,0c0,0,0,0,0,0c0,0,0,0,0,0c0,0,0,0,0,0c0,0,0,0,0,0c0,0,0,0,0,0c0,0,0,0,0,0c0,0,0,0,0,0c0,0,0,0,0.01,0c0,0,0,0,0,0
			c0,0,0,0,0.01,0c0,0,0,0,0,0c0,0,0,0,0.01,0c0,0,0,0,0,0c0,0,0,0,0.01,0c0,0,0,0,0,0c0,0,0.01,0,0.01,0c0,0,0.01,0.01,0.01,0.01
			c1.24,0.79,2.86,3.04,0.21,4.01c-0.01,0-0.01,0-0.02,0.01c0,0-0.01,0-0.01,0c-1.22,0.43-2.59-0.19-3.71-0.62
			c-0.71-0.27-2.9-1.2-3.52-0.21l0,0l0,0c-0.3,0.48-0.21,0.72-0.08,1.22c0.29,1.14,0.82,0.34,0.48,2.42l0,0c0,0,0,0.01,0,0.01
			c0,0,0,0,0,0c0,0,0,0,0,0.01c0,0,0,0.01,0,0.01c0,0,0,0,0,0C364.56,160.76,363.39,160.83,362.46,160.25
			C362.46,160.25,362.46,160.25,362.46,160.25"/>
		<path class="st12" d="M368.5,143.55C368.5,143.55,368.5,143.55,368.5,143.55c-0.26-0.16-0.34-0.42-0.25-0.79l2.14-3.41
			c1.21,0.82,1.53,1.72,1.84,3.39c0,0.01,0,0.01,0,0.02c0,0.01,0,0.03,0.01,0.04c0.04,0.24,0.12,0.46,0.23,0.67
			c-0.02-0.01-0.04-0.02-0.05-0.03c-0.68-0.29-1.22-0.4-1.95-0.32c-0.19,0.02-0.41,0.13-0.55,0.25c-0.15,0.11-0.27,0.23-0.39,0.37
			l0,0c0,0,0,0-0.01,0c-0.02,0-0.04,0-0.06,0C369.04,143.74,368.71,143.68,368.5,143.55C368.51,143.55,368.5,143.55,368.5,143.55"/>
		<path class="st12" d="M362.63,161.46c1.01,0,2.12-0.62,2.71-1.56c0.34-0.54,0.5-1.19,0.36-1.88c-0.11-0.58-0.13-0.6-0.35-1.15
			c-0.17-0.43-0.18-0.7-0.09-0.85c0.28-0.44,1.42,0.06,1.89,0.2c0.97,0.3,1.92,0.85,2.96,0.93c1.39,0.11,2.7-0.19,3.4-1.29
			c0.14-0.22,0.25-0.48,0.34-0.76c0.44-1.52-0.98-2.86-2.06-3.6c-0.65-0.45-0.99-0.54-0.79-0.86c0.1-0.16,0.35-0.39,0.78-0.75
			c0.21-0.18,1.24-0.85,1.63-1.12c0.35-0.25,0.78-0.67,1.07-1.14c0.2-0.32,0.33-0.65,0.34-0.97c0-0.24-0.03-0.47-0.08-0.69
			c0.69,0.8,1.27,1.81,1.34,3.33c0.12,2.45-0.12,4.82-1.13,6.43c-0.54,0.85-1.29,1.5-2.32,1.83c-2.98,0.97-5.86,4.54-9.06,4.11
			C363.24,161.63,362.93,161.56,362.63,161.46"/>
		<path class="st13" d="M361.54,161.17C361.54,161.17,361.54,161.17,361.54,161.17c-0.15-0.09-0.29-0.21-0.41-0.35
			c0-0.01-0.01-0.01-0.01-0.02l0,0c-0.18-0.21-0.32-0.47-0.43-0.79c-0.19-0.58-0.27-1.09-0.2-1.71c0,0,0,0,0,0c0,0,0,0,0,0
			c0,0,0,0,0,0c0,0,0,0,0,0c0.01-0.21,0.01-2.44-0.27-2.73l0.44-0.7c0.92,0.89,0.7,2.1,0.63,3.4c0,0.01,0,0.02,0,0.03
			c0,0,0,0.01,0,0.01c0,0,0,0,0,0c0,0.01,0,0.01,0,0.02l0,0c0,0,0,0.01,0,0.01c0,0,0,0,0,0.01c0,0,0,0,0,0.01
			c-0.02,0.74,0.51,1.49,1.17,1.9c0,0,0,0,0,0l0,0c0,0,0,0,0,0c0.92,0.58,2.1,0.51,2.38-1.12c0,0,0,0,0,0c0,0,0-0.01,0-0.01
			c0,0,0,0,0-0.01c0,0,0,0,0,0c0,0,0-0.01,0-0.01l0,0c0.34-2.09-0.18-1.29-0.48-2.42c-0.13-0.5-0.22-0.74,0.08-1.22l0,0
			c0.62-0.99,2.81-0.05,3.52,0.21c1.12,0.42,2.5,1.05,3.71,0.62c0,0,0.01,0,0.01,0c0.01,0,0.01,0,0.02-0.01
			c2.64-0.97,1.03-3.22-0.21-4.01c-0.01,0-0.01-0.01-0.01-0.01l0,0c0,0-0.01,0-0.01,0c0,0,0,0,0,0c0,0,0,0-0.01,0c0,0,0,0,0,0
			c0,0,0,0-0.01,0c0,0,0,0,0,0c0,0,0,0-0.01,0c0,0,0,0,0,0c0,0,0,0-0.01,0c0,0,0,0,0,0c0,0,0,0,0,0c0,0,0,0,0,0c0,0,0,0,0,0
			c0,0,0,0,0,0c0,0,0,0,0,0c0,0,0,0,0,0c0,0,0,0,0,0c0,0,0,0,0,0c0,0,0,0,0,0c0,0,0,0,0,0c0,0,0,0,0,0c0,0,0,0,0,0c0,0,0,0-0.01,0
			c0,0,0,0,0,0c0,0,0,0-0.01,0c0,0,0,0,0,0c0,0,0,0-0.01,0c0,0,0,0,0,0c0,0,0,0-0.01,0l0,0c0,0-0.01,0-0.01,0l0,0
			c-0.42-0.25-0.86-0.48-1.3-0.69c-0.01-0.01-0.02-0.01-0.03-0.02l0,0l0,0c0,0,0,0,0,0c-0.18-0.11-0.18-0.35-0.1-0.53c0,0,0,0,0,0
			c0,0,0,0,0-0.01l0,0c0.07-0.15,0.15-0.29,0.23-0.41c0.68-1.08,1.71-1.48,2.7-2.35c0,0,0.01-0.01,0.01-0.01
			c0,0,0.01-0.01,0.01-0.01c1.41-1.27,0.71-3.15-0.49-3.91c0,0,0,0,0,0l0,0c0,0,0,0,0,0c-0.76-0.47-1.71-0.5-2.46,0.35c0,0,0,0,0,0
			c0,0,0,0,0,0.01c0,0,0,0.01-0.01,0.01l0,0l0,0c0,0,0,0-0.01,0.01c0,0,0,0,0,0c0,0,0,0,0,0.01c0,0,0,0,0,0c0,0,0,0,0,0c0,0,0,0,0,0
			c0,0,0,0,0,0c-0.51,0.57-1.09,0.6-1.58,0.29c0,0,0,0,0,0l0,0c0,0,0,0,0,0c-0.27-0.17-0.52-0.45-0.71-0.79c0,0,0,0,0,0
			c0-0.01-0.01-0.01-0.01-0.02c0,0,0-0.01,0-0.01c0,0,0,0,0-0.01l0,0c-0.03-0.05-0.05-0.1-0.07-0.16l0.74-1.18
			c-0.09,0.36-0.01,0.63,0.25,0.79c0,0,0,0,0,0l0,0c0,0,0,0,0,0c0.21,0.13,0.53,0.19,0.97,0.19c0.02,0,0.04,0,0.06,0c0,0,0,0,0.01,0
			l0,0c0.11-0.14,0.24-0.26,0.39-0.37c0.14-0.13,0.37-0.23,0.55-0.25c0.73-0.09,1.27,0.03,1.95,0.32c0.02,0.01,0.04,0.02,0.05,0.03
			c0,0,0.01,0,0.01,0.01c0.2,0.09,0.39,0.19,0.57,0.31c0,0,0,0,0,0l0,0c0,0,0,0,0,0c0.8,0.5,1.42,1.25,1.64,2.14
			c0,0.01,0.01,0.03,0.01,0.04c0,0.01,0,0.01,0,0.02c0.05,0.22,0.08,0.45,0.08,0.69c0,0.32-0.14,0.66-0.34,0.97
			c-0.29,0.47-0.72,0.88-1.07,1.14c-0.38,0.28-1.42,0.95-1.63,1.12c-0.42,0.36-0.67,0.59-0.78,0.75c-0.2,0.32,0.14,0.41,0.79,0.86
			c1.08,0.75,2.51,2.08,2.06,3.6c-0.08,0.29-0.2,0.54-0.34,0.76c-0.69,1.1-2.01,1.4-3.4,1.29c-1.03-0.08-1.98-0.63-2.96-0.93
			c-0.47-0.14-1.61-0.64-1.89-0.2c-0.1,0.15-0.09,0.42,0.09,0.85c0.22,0.54,0.23,0.57,0.35,1.15c0.14,0.69-0.03,1.34-0.36,1.88
			c-0.59,0.93-1.7,1.55-2.71,1.56l0,0c0,0-0.01,0-0.01,0c0,0-0.01,0-0.01,0C362.23,161.46,361.86,161.37,361.54,161.17
			C361.54,161.17,361.54,161.17,361.54,161.17L361.54,161.17"/>
		<path class="st11" d="M336.03,146.88l-2.78-1.75L336.03,146.88l3-3.86l1.11,0.69c0.09,0.05,0.2,0.03,0.26-0.06l0.71-1.12l0,0
			l-0.71,1.12c-0.05,0.09-0.17,0.11-0.26,0.06l-1.11-0.69L336.03,146.88 M341.1,142.53c0.05-0.09,0.02-0.2-0.06-0.25l0,0
			C341.13,142.34,341.15,142.45,341.1,142.53"/>
		<polyline class="st10" points="335.77,145.97 333.59,144.6 335.83,141.02 338.38,142.62 335.77,145.97 		"/>
		<path class="st8" d="M336.03,146.88l-2.78-1.75l0.34-0.54l2.18,1.37l2.61-3.35l-2.55-1.6l0.9-1.44l4.3,2.7
			c0.08,0.05,0.11,0.16,0.06,0.25c0,0,0,0,0,0.01l-0.71,1.12c-0.05,0.09-0.17,0.11-0.26,0.06l-1.11-0.69L336.03,146.88"/>
		<path class="st11" d="M329.88,125.16L329.88,125.16C329.88,125.16,329.88,125.16,329.88,125.16
			C329.88,125.16,329.88,125.16,329.88,125.16 M329.87,125.16C329.87,125.16,329.87,125.16,329.87,125.16
			C329.87,125.16,329.87,125.16,329.87,125.16 M329.86,125.15C329.86,125.15,329.86,125.15,329.86,125.15
			C329.86,125.15,329.86,125.15,329.86,125.15 M329.85,125.14L329.85,125.14c-0.03-0.02-0.07-0.04-0.1-0.07
			C329.78,125.1,329.81,125.12,329.85,125.14L329.85,125.14L329.85,125.14 M333.08,125.25c0.01,0,0.02-0.01,0.03-0.01l6.8-9.72
			l-6.8,9.72l0,0C333.1,125.24,333.09,125.25,333.08,125.25"/>
		<path class="st8" d="M329.88,125.16C329.88,125.16,329.87,125.16,329.88,125.16C329.87,125.16,329.87,125.16,329.88,125.16
			c-0.01-0.01-0.01-0.01-0.02-0.01c0,0,0,0,0,0c-0.01,0-0.01-0.01-0.02-0.01l0,0l0,0l8.22-11.02l1.85,1.4l-6.8,9.72
			c-0.01,0-0.02,0.01-0.03,0.01C331.65,125.77,330.62,125.63,329.88,125.16C329.88,125.16,329.88,125.16,329.88,125.16"/>
		<path class="st8" d="M333.56,125.06l4.95-5.8l1.83,1.62l-4.33,5.34l-2.11-1.32C333.79,124.96,333.67,125.01,333.56,125.06"/>
		<polyline class="st8" points="329.75,125.08 329.75,125.08 329.77,125.05 329.75,125.08 		"/>
		<polyline class="st8" points="338.62,127.86 336.15,126.31 342.7,119.76 344.42,121.55 338.62,127.86 		"/>
		<path class="st10" d="M328.32,141.9l-6.56-4.12l7.98-12.71c0,0,0,0,0,0l0,0l0,0c0.03,0.02,0.06,0.05,0.1,0.07l0,0
			c0.01,0,0.01,0.01,0.02,0.01c0,0,0,0,0,0c0,0,0.01,0,0.01,0c0,0,0,0,0,0c0,0,0.01,0,0.01,0l0,0c0,0,0,0,0,0
			c0.74,0.46,1.76,0.61,3.2,0.08c0.01,0,0.02-0.01,0.03-0.01l0,0c0.14-0.05,0.29-0.11,0.45-0.18l0,0c0.11-0.05,0.23-0.1,0.34-0.16
			l2.11,1.32l0,0l0.14,0.09l2.47,1.55l0.72,0.45L328.32,141.9"/>
		<path class="st11" d="M308.87,161.72L308.87,161.72C308.87,161.72,308.87,161.72,308.87,161.72
			C308.87,161.72,308.87,161.72,308.87,161.72 M308.87,161.72c-0.37-0.23-0.72-0.5-1.04-0.81l0,0
			C308.15,161.21,308.5,161.48,308.87,161.72 M315.21,163.07c0,0,0.01,0,0.01,0l0,0C315.21,163.07,315.21,163.07,315.21,163.07"/>
		<path class="st13" d="M304.08,177.83l-4.93-3.1l1.92-3.06l3.91,2.46l10.23-11.06l0,0c0,0-0.01,0-0.01,0
			c-1.62,0.08-4.27-0.06-6.33-1.35c0,0,0,0,0,0c0,0,0,0,0,0c-0.37-0.23-0.72-0.5-1.04-0.81l4.02-6.4l8.67,5.2L304.08,177.83"/>
		<path class="st10" d="M304.98,174.13l-3.91-2.46l6.76-10.77c0.32,0.31,0.67,0.58,1.04,0.81c0,0,0,0,0,0l0,0c0,0,0,0,0,0
			c2.06,1.29,4.71,1.44,6.33,1.35c0,0,0.01,0,0.01,0l0,0L304.98,174.13"/>
		<path class="st11" d="M347.07,202.32L347.07,202.32L347.07,202.32 M347.08,202.32L347.08,202.32L347.08,202.32 M347.08,202.32
			C347.08,202.32,347.08,202.32,347.08,202.32C347.08,202.32,347.08,202.32,347.08,202.32 M347.08,202.32L347.08,202.32
			L347.08,202.32 M347.09,202.32L347.09,202.32L347.09,202.32 M347.09,202.32L347.09,202.32L347.09,202.32 M347.09,202.32
			C347.09,202.32,347.09,202.32,347.09,202.32C347.09,202.32,347.09,202.32,347.09,202.32 M347.09,202.32
			C347.09,202.32,347.09,202.32,347.09,202.32C347.09,202.32,347.09,202.32,347.09,202.32 M347.1,202.32
			C347.1,202.32,347.1,202.32,347.1,202.32C347.1,202.32,347.1,202.32,347.1,202.32 M347.1,202.32
			C347.1,202.32,347.1,202.32,347.1,202.32C347.1,202.32,347.1,202.32,347.1,202.32 M347.1,202.32L347.1,202.32
			c1.42-0.15,3.43-1.73,3.81-3.87C350.53,200.59,348.52,202.17,347.1,202.32L347.1,202.32 M339.82,192.57L339.82,192.57
			L339.82,192.57L339.82,192.57 M339.82,192.57c-0.47-0.29-0.94-0.59-1.4-0.89l0,0C338.88,191.98,339.35,192.27,339.82,192.57
			 M350.67,198.52C350.67,198.52,350.67,198.52,350.67,198.52C350.67,198.52,350.67,198.52,350.67,198.52 M350.91,198.45
			L350.91,198.45c1.23-0.41,3-1.96,1.42-4.8c0.26,0.06,0.49,0.09,0.69,0.11c-0.2-0.01-0.43-0.05-0.69-0.11
			C353.91,196.49,352.15,198.04,350.91,198.45 M352.31,193.65c0.01,0,0.02,0,0.02,0.01C352.33,193.65,352.32,193.65,352.31,193.65
			 M353.77,193.59L353.77,193.59c0.33-0.3,0.56-0.76,0.69-1.33C354.33,192.83,354.1,193.29,353.77,193.59L353.77,193.59"/>
		<path class="st8" d="M335.57,196.2l2.84-4.53c0.47,0.3,0.94,0.6,1.4,0.89c0,0,0,0,0,0l0,0l0,0l0,0
			c5.24,3.29,10.19,6.08,10.85,5.95c0,0,0,0,0,0l0,0c0.08-0.02,0.16-0.04,0.24-0.07l0,0l0,0l0,0l0,0c-0.38,2.14-2.39,3.72-3.81,3.87
			l0,0c0,0,0,0,0,0c0,0,0,0,0,0c0,0,0,0,0,0c0,0,0,0,0,0c0,0,0,0,0,0c0,0,0,0,0,0c0,0,0,0,0,0c0,0,0,0,0,0c0,0,0,0,0,0l0,0
			c0,0,0,0,0,0l0,0c0,0,0,0,0,0l0,0c0,0,0,0,0,0c0,0,0,0,0,0c0,0,0,0,0,0l0,0c0,0,0,0,0,0l0,0
			C346.11,202.36,340.82,199.44,335.57,196.2"/>
		<path class="st10" d="M339.82,192.57C339.82,192.57,339.82,192.57,339.82,192.57c-0.47-0.29-0.94-0.59-1.41-0.89l2.38-3.8
			c4.5,2.77,9.14,5.22,11.52,5.77c0.01,0,0.02,0,0.02,0.01l0,0l0,0c1.57,2.84-0.19,4.39-1.42,4.8l0,0
			c-0.08,0.03-0.16,0.05-0.24,0.07l0,0c0,0,0,0,0,0C350.01,198.65,345.06,195.86,339.82,192.57L339.82,192.57L339.82,192.57"/>
		<path class="st8" d="M340.8,187.88l3.43-5.46c0.25,0.14,0.48,0.19,0.53,0.1l0,0l0,0c0.05-0.08-0.09-0.27-0.32-0.44l1-1.59
			c0.25,0.14,0.48,0.19,0.53,0.1l0,0l0,0c0.05-0.08-0.09-0.27-0.32-0.44l0.42-0.66c0.05,0.03,0.09,0.06,0.14,0.09
			c6.82,4.29,8.86,9.88,8.25,12.68c-0.12,0.57-0.36,1.03-0.69,1.33l0,0c-0.15,0.14-0.4,0.19-0.75,0.17
			c-0.2-0.01-0.43-0.05-0.69-0.11l0,0l0,0c-0.01,0-0.02,0-0.02-0.01C349.94,193.1,345.3,190.65,340.8,187.88 M346.65,182.28
			L346.65,182.28c-0.06,0.09,0.12,0.31,0.4,0.49c0.28,0.18,0.56,0.24,0.62,0.15l0,0l0,0c0.06-0.09-0.12-0.31-0.4-0.49
			S346.71,182.19,346.65,182.28L346.65,182.28 M348.54,182.68L348.54,182.68c-0.06,0.09,0.12,0.31,0.4,0.49
			c0.28,0.18,0.56,0.24,0.62,0.15l0,0l0,0c0.06-0.09-0.12-0.31-0.4-0.49S348.59,182.58,348.54,182.68L348.54,182.68"/>
		<path class="st9" d="M345.44,180.49l0.21-0.34c0.23,0.17,0.38,0.35,0.32,0.44l0,0C345.92,180.68,345.69,180.63,345.44,180.49"/>
		<path class="st9" d="M348.94,183.17c-0.28-0.18-0.46-0.4-0.4-0.49l0,0c0.06-0.09,0.34-0.03,0.62,0.15s0.46,0.4,0.4,0.49l0,0
			C349.5,183.41,349.22,183.34,348.94,183.17"/>
		<path class="st9" d="M347.05,182.77c-0.28-0.18-0.46-0.4-0.4-0.49l0,0c0.06-0.09,0.34-0.03,0.62,0.15s0.46,0.4,0.4,0.49l0,0
			C347.61,183.02,347.33,182.95,347.05,182.77"/>
		<path class="st9" d="M344.23,182.42l0.21-0.34c0.23,0.17,0.38,0.35,0.32,0.44l0,0C344.71,182.6,344.48,182.56,344.23,182.42"/>
		<path class="st11" d="M371.78,220.3L371.78,220.3c0.62-0.54,1.98-1.64,3.69-3C373.76,218.66,372.41,219.76,371.78,220.3
			 M375.49,217.29c0,0,0.01-0.01,0.01-0.01C375.49,217.28,375.49,217.29,375.49,217.29 M375.5,217.28c0.01,0,0.01-0.01,0.02-0.01
			C375.51,217.27,375.51,217.28,375.5,217.28 M375.58,217.21c0,0,0.01-0.01,0.01-0.01C375.59,217.21,375.59,217.21,375.58,217.21
			 M390.73,199.02L390.73,199.02L390.73,199.02L390.73,199.02 M390.73,199.02c-0.14-0.09-0.24-0.19-0.27-0.34
			C390.49,198.83,390.59,198.94,390.73,199.02 M392.07,199.8L392.07,199.8C392.07,199.8,392.07,199.8,392.07,199.8
			C392.07,199.8,392.07,199.8,392.07,199.8 M392.06,199.8c-0.1-0.06-0.18-0.17-0.19-0.32C391.88,199.63,391.96,199.74,392.06,199.8
			 M391.32,199.26c0.01,0,0.02,0.01,0.03,0.01C391.34,199.26,391.33,199.26,391.32,199.26 M391.35,199.26
			c0.01,0,0.02,0.01,0.03,0.01C391.37,199.27,391.36,199.27,391.35,199.26 M391.38,199.27c0.01,0,0.01,0,0.02,0.01
			C391.39,199.28,391.38,199.27,391.38,199.27 M391.4,199.28C391.4,199.28,391.4,199.28,391.4,199.28
			C391.4,199.28,391.4,199.28,391.4,199.28 M391.42,199.28c0.14,0.04,0.27,0.07,0.35,0.11
			C391.69,199.36,391.57,199.32,391.42,199.28 M391.87,199.47c0-0.02-0.02-0.04-0.05-0.06
			C391.86,199.43,391.87,199.45,391.87,199.47 M391.78,199.39C391.78,199.39,391.79,199.39,391.78,199.39
			C391.79,199.39,391.78,199.39,391.78,199.39 M391.79,199.4C391.79,199.4,391.79,199.4,391.79,199.4
			C391.79,199.4,391.79,199.4,391.79,199.4 M391.81,199.4c0.01,0,0.01,0.01,0.02,0.01l0,0C391.82,199.41,391.81,199.41,391.81,199.4
			 M392.68,199.52C392.68,199.52,392.68,199.52,392.68,199.52C392.68,199.52,392.68,199.52,392.68,199.52 M392.68,199.51
			C392.68,199.51,392.68,199.51,392.68,199.51C392.68,199.51,392.68,199.51,392.68,199.51 M392.68,199.5
			C392.68,199.5,392.68,199.5,392.68,199.5C392.68,199.5,392.68,199.5,392.68,199.5 M392.68,199.5L392.68,199.5
			C392.68,199.5,392.68,199.5,392.68,199.5C392.68,199.5,392.68,199.5,392.68,199.5L392.68,199.5 M392.67,199.48
			C392.67,199.48,392.67,199.48,392.67,199.48C392.67,199.48,392.67,199.48,392.67,199.48 M392.67,199.47
			C392.67,199.47,392.67,199.47,392.67,199.47C392.67,199.47,392.67,199.47,392.67,199.47 M392.67,199.46
			c-0.02-0.3-0.05-0.77-0.34-0.95C392.62,198.69,392.65,199.16,392.67,199.46 M391.57,198.4c-0.3-0.19,0.74-0.92,0.97-1.15
			C392.31,197.48,391.27,198.21,391.57,198.4C391.57,198.4,391.57,198.4,391.57,198.4C391.57,198.4,391.57,198.4,391.57,198.4
			 M391.95,198.44C391.95,198.44,391.95,198.44,391.95,198.44C391.95,198.44,391.95,198.44,391.95,198.44 M391.96,198.44
			C391.96,198.44,391.96,198.44,391.96,198.44C391.96,198.44,391.96,198.44,391.96,198.44 M391.97,198.44
			C391.97,198.44,391.97,198.44,391.97,198.44C391.97,198.44,391.97,198.44,391.97,198.44 M391.98,198.44L391.98,198.44
			c0,0,0.01,0,0.01,0C391.99,198.44,391.99,198.44,391.98,198.44L391.98,198.44 M392.34,198.51
			C392.34,198.51,392.34,198.51,392.34,198.51L392.34,198.51C392.34,198.51,392.34,198.51,392.34,198.51 M391.67,196.84
			c0,0,0-0.01,0-0.01C391.67,196.83,391.67,196.84,391.67,196.84 M391.67,196.83c-0.12-0.46-0.28-0.76-0.49-0.89
			C391.38,196.07,391.55,196.36,391.67,196.83 M391.18,195.94C391.18,195.94,391.18,195.94,391.18,195.94L391.18,195.94
			C391.18,195.94,391.18,195.94,391.18,195.94 M393.65,195.74c0.14-0.33-0.07-0.59-0.35-0.77
			C393.58,195.14,393.79,195.4,393.65,195.74 M392.63,194.7C392.63,194.7,392.64,194.7,392.63,194.7
			C392.64,194.7,392.63,194.7,392.63,194.7 M392.64,194.7C392.64,194.7,392.64,194.7,392.64,194.7
			C392.64,194.7,392.64,194.7,392.64,194.7 M393.3,194.97C393.3,194.97,393.3,194.97,393.3,194.97L393.3,194.97
			C393.3,194.97,393.3,194.97,393.3,194.97 M392.26,192.98C392.26,192.97,392.26,192.97,392.26,192.98
			C392.26,192.97,392.26,192.97,392.26,192.98 M392.26,192.97C392.26,192.97,392.26,192.97,392.26,192.97
			C392.26,192.97,392.26,192.97,392.26,192.97 M392.27,192.96c0.65-0.62,0.46-1.31-0.15-1.7
			C392.73,191.65,392.92,192.34,392.27,192.96 M392.12,191.26C392.12,191.26,392.12,191.26,392.12,191.26L392.12,191.26
			C392.12,191.26,392.12,191.26,392.12,191.26"/>
		<path class="st10" d="M390.74,205.36c0.1-0.08,0.15-0.12,0.15-0.12l0,0l0,0l-6.92-4.35l2.78-4.42c0.78,0.35,1.45,0.33,2.34,0.14
			c0.35-0.08,0.93-0.35,1.26-0.5c0.33-0.26,0.6-0.32,0.83-0.18c0,0,0,0,0,0c0,0,0,0,0,0c0.2,0.13,0.37,0.43,0.49,0.89c0,0,0,0,0,0
			c0,0,0,0.01,0,0.01l0,0c-0.19,0.07-0.36,0.16-0.51,0.28c-0.23,0.17-0.43,0.35-0.56,0.56c-0.17,0.28-0.24,0.6-0.15,1l0,0
			c0.03,0.14,0.14,0.25,0.27,0.34c0,0,0,0,0,0l0,0l0,0l0,0c0.17,0.11,0.39,0.18,0.59,0.23c0.01,0,0.02,0.01,0.03,0.01l0,0l0,0
			c0.01,0,0.02,0.01,0.03,0.01c0,0,0,0,0,0c0.01,0,0.01,0,0.02,0.01c0,0,0,0,0,0c0,0,0,0,0,0c0.01,0,0.02,0.01,0.03,0.01
			c0.14,0.04,0.27,0.07,0.35,0.11c0,0,0,0,0.01,0c0,0,0,0,0,0c0,0,0,0,0.01,0c0,0,0,0,0,0c0,0,0.01,0,0.01,0.01
			c0.01,0,0.01,0.01,0.02,0.01c0,0,0,0,0,0c0.03,0.02,0.04,0.04,0.05,0.06l0,0c0,0,0,0,0,0.01c0.01,0.15,0.09,0.26,0.19,0.32
			c0,0,0,0,0,0l0,0l0,0c0,0,0,0,0,0c0.24,0.15,0.62,0.06,0.61-0.29c0,0,0,0,0,0c0,0,0,0,0,0c0,0,0,0,0-0.01c0,0,0,0,0,0c0,0,0,0,0,0
			c0,0,0,0,0,0l0,0c0,0,0,0,0-0.01c0,0,0-0.01,0-0.01c0,0,0,0,0-0.01c0,0,0,0,0-0.01c0,0,0,0,0,0c0,0,0,0,0,0
			c-0.02-0.3-0.05-0.77-0.34-0.95c0,0,0,0,0,0l0,0l0,0c0,0,0,0,0,0c-0.09-0.05-0.2-0.08-0.34-0.07c0,0-0.01,0-0.01,0l0,0
			c0,0,0,0-0.01,0c0,0-0.01,0-0.01,0c0,0,0,0,0,0c0,0-0.01,0-0.01,0c0,0-0.01,0-0.01,0c0,0,0,0,0,0c-0.19,0.02-0.31,0-0.37-0.04
			c0,0,0,0,0,0c-0.3-0.19,0.74-0.92,0.97-1.15c0,0,0,0,0,0c0.33-0.32,0.6-0.63,0.82-0.98c0.1-0.16,0.19-0.34,0.28-0.53l0,0
			c0,0,0-0.01,0-0.01c0.14-0.33-0.07-0.59-0.35-0.77l0,0l0,0l0,0c0,0,0,0,0,0c-0.22-0.14-0.48-0.22-0.65-0.26c0,0,0,0-0.01,0
			c0,0,0,0,0,0c0,0,0,0-0.01,0c0,0,0,0-0.01,0l0,0c-1.89-0.36-3.3,1.73-5.22,1.16c1.48-1.17,3.43-1.57,4.84-2.88c0,0,0,0,0.01-0.01
			c0,0,0,0,0,0c0,0,0,0,0,0c0,0,0,0,0,0c0,0,0,0,0.01-0.01c0.65-0.62,0.46-1.31-0.15-1.7c0,0,0,0,0,0l0,0l0,0c0,0,0,0,0,0
			c-0.09-0.05-0.18-0.1-0.28-0.14l0,0c-0.53-0.21-1.07-0.26-1.6-0.21l0.89-1.41c0.14,0.08,0.27,0.15,0.39,0.23
			c6.3,3.95,1.34,11.6,0.44,12.54C391.97,202.28,392.76,204.75,390.74,205.36"/>
		<path class="st10" d="M387.94,194.58l1.73-2.75c0.65-0.13,1.3-0.11,1.94,0.07c-0.03,0.3-0.11,0.56-0.24,0.77
			c-0.2,0.32-0.51,0.54-0.94,0.67C389.6,193.82,388.74,194.15,387.94,194.58"/>
		<path class="st8" d="M371.78,220.3l12.19-19.41l6.92,4.35c0,0-0.05,0.04-0.15,0.12c0,0,0,0,0,0c-1.24,0.96-9.84,7.63-15.15,11.84
			c0,0-0.01,0.01-0.01,0.01c-0.02,0.02-0.04,0.03-0.06,0.05c-0.01,0-0.01,0.01-0.02,0.01c0,0,0,0,0,0c0,0-0.01,0.01-0.01,0.01
			c0,0-0.01,0.01-0.01,0.01C373.76,218.66,372.41,219.76,371.78,220.3"/>
		<path class="st13" d="M390.73,199.02C390.73,199.02,390.73,199.02,390.73,199.02c-0.14-0.09-0.24-0.2-0.27-0.34l0,0
			c-0.09-0.4-0.03-0.72,0.15-1c0.13-0.21,0.32-0.39,0.56-0.56c0.16-0.12,0.33-0.21,0.51-0.28l0,0l0,0c0,0,0-0.01,0-0.01c0,0,0,0,0,0
			c-0.12-0.46-0.28-0.76-0.49-0.89c0,0,0,0,0,0l0,0c0,0,0,0,0,0c-0.22-0.14-0.5-0.08-0.83,0.18c-0.33,0.15-0.9,0.42-1.26,0.5
			c-0.89,0.19-1.57,0.21-2.34-0.14l1.19-1.9c0.8-0.43,1.66-0.76,2.48-1.24c0.43-0.13,0.75-0.36,0.94-0.67
			c0.13-0.21,0.22-0.47,0.24-0.77c-0.64-0.18-1.29-0.2-1.94-0.07l0.57-0.91c0.53-0.05,1.06,0,1.6,0.21l0,0
			c0.1,0.04,0.19,0.09,0.28,0.14c0,0,0,0,0,0l0,0c0,0,0,0,0,0c0.61,0.38,0.8,1.08,0.15,1.7c0,0,0,0-0.01,0.01c0,0,0,0,0,0
			c0,0,0,0,0,0c0,0,0,0,0,0c0,0,0,0-0.01,0.01c-1.42,1.31-3.36,1.71-4.84,2.88l0,0c1.92,0.57,3.33-1.53,5.22-1.16l0,0
			c0,0,0,0,0.01,0c0,0,0,0,0.01,0c0,0,0,0,0,0c0,0,0,0,0.01,0c0.17,0.04,0.43,0.12,0.65,0.26c0,0,0,0,0,0l0,0l0,0
			c0.28,0.18,0.49,0.44,0.35,0.77c0,0,0,0.01,0,0.01l0,0c-0.08,0.19-0.18,0.37-0.28,0.53c-0.22,0.36-0.5,0.66-0.82,0.98c0,0,0,0,0,0
			c-0.23,0.23-1.27,0.96-0.97,1.15c0,0,0,0,0,0c0.06,0.04,0.18,0.05,0.37,0.04c0,0,0,0,0,0c0,0,0.01,0,0.01,0c0,0,0.01,0,0.01,0
			c0,0,0,0,0,0c0,0,0.01,0,0.01,0c0,0,0,0,0.01,0l0,0c0,0,0.01,0,0.01,0c0.14-0.01,0.25,0.02,0.34,0.07c0,0,0,0,0,0l0,0c0,0,0,0,0,0
			c0.29,0.18,0.32,0.65,0.34,0.95c0,0,0,0,0,0c0,0,0,0,0,0c0,0,0,0,0,0.01c0,0,0,0,0,0.01c0,0,0,0.01,0,0.01c0,0,0,0,0,0.01l0,0
			c0,0,0,0,0,0c0,0,0,0,0,0c0,0,0,0,0,0c0,0,0,0,0,0.01c0,0,0,0,0,0c0,0,0,0,0,0c0.01,0.35-0.37,0.44-0.61,0.29c0,0,0,0,0,0l0,0
			c0,0,0,0,0,0c-0.1-0.06-0.18-0.17-0.19-0.32c0,0,0,0,0-0.01l0,0c0-0.02-0.02-0.04-0.05-0.06c0,0,0,0,0,0l0,0
			c-0.01,0-0.01-0.01-0.02-0.01c0,0-0.01,0-0.01-0.01c0,0,0,0,0,0c0,0,0,0-0.01,0c0,0,0,0,0,0c0,0,0,0-0.01,0
			c-0.08-0.03-0.21-0.07-0.35-0.11c-0.01,0-0.02-0.01-0.03-0.01c0,0,0,0,0,0c0,0,0,0,0,0c-0.01,0-0.01,0-0.02-0.01c0,0,0,0,0,0
			c-0.01,0-0.02-0.01-0.03-0.01l0,0l0,0c-0.01,0-0.02-0.01-0.03-0.01C391.12,199.2,390.9,199.13,390.73,199.02L390.73,199.02
			L390.73,199.02"/>
		<path class="st14" d="M332.05,206c-0.06-0.04-0.08-0.12-0.08-0.12l0.93-2.2c0.19,0.12,0.45,0.26,0.52,0.3
			c0.06,0.04,0.08,0.12,0.08,0.12l-0.52,1.04c-0.04,0.09-0.12,0.21-0.2,0.33c0.12-0.11,0.23-0.22,0.32-0.28l1.01-0.74
			c0.17,0.11,0.4,0.23,0.46,0.27l0,0c0.06,0.04,0.08,0.12,0.08,0.12l-2.19,1.41C332.36,206.18,332.11,206.04,332.05,206"/>
		<path class="st14" d="M333.53,206.95c-0.33-0.21-0.41-0.55-0.19-0.9c0.25-0.4,0.88-0.77,1.39-0.45c0.28,0.18,0.35,0.45,0.19,0.7
			c-0.14,0.22-0.35,0.28-0.69,0.16l-0.36-0.13c-0.06,0.15-0.02,0.27,0.13,0.36c0.17,0.11,0.37,0.05,0.37,0.05s0.06,0.11-0.01,0.21
			C334.25,207.13,333.85,207.15,333.53,206.95 M334.44,205.88c-0.13-0.08-0.31,0.09-0.42,0.23l0.24,0.06
			c0.08,0.02,0.14-0.02,0.18-0.09C334.47,206.03,334.51,205.93,334.44,205.88"/>
		<path class="st14" d="M334.82,207.76c-0.33-0.21-0.4-0.54-0.19-0.89c0.26-0.41,0.89-0.77,1.41-0.45c0.26,0.16,0.36,0.42,0.25,0.6
			c-0.14,0.22-0.46,0.13-0.46,0.13s0.07-0.29-0.11-0.4c-0.12-0.08-0.27,0-0.44,0.27c-0.15,0.24-0.16,0.39,0,0.49
			c0.16,0.1,0.33,0.05,0.33,0.05s0.06,0.11,0,0.2C335.51,207.93,335.13,207.95,334.82,207.76 M336.04,206.42L336.04,206.42
			L336.04,206.42C336.04,206.42,336.04,206.42,336.04,206.42"/>
		<path class="st14" d="M336.04,208.53c-0.28-0.17-0.28-0.42-0.05-0.68l0.52-0.6l-0.17-0.11l0.23-0.19c0.06-0.05,0.14-0.06,0.2-0.02
			l0.09,0.05l0.28-0.22c0.15,0.05,0.29,0.08,0.35,0.12c0.06,0.04,0.07,0.11,0.07,0.11l-0.24,0.27l0.32,0.2l-0.22,0.19
			c-0.07,0.06-0.13,0.08-0.21,0.03l-0.17-0.11l-0.47,0.53c-0.08,0.09-0.08,0.14-0.02,0.19c0,0,0,0,0,0
			c0.06,0.04,0.14,0.04,0.14,0.04s0.06,0.11,0,0.2C336.6,208.68,336.3,208.69,336.04,208.53"/>
		<path class="st14" d="M337.18,209.24c-0.33-0.21-0.41-0.55-0.19-0.9c0.25-0.4,0.88-0.77,1.39-0.45c0.28,0.18,0.35,0.45,0.19,0.7
			l0,0c-0.14,0.22-0.35,0.28-0.69,0.16l-0.36-0.13c-0.06,0.15-0.02,0.27,0.12,0.36c0.17,0.11,0.37,0.05,0.37,0.05
			s0.06,0.11-0.01,0.21C337.91,209.43,337.51,209.45,337.18,209.24 M338.09,208.18c-0.13-0.08-0.31,0.09-0.42,0.23l0.24,0.06
			c0.08,0.02,0.14-0.02,0.18-0.09C338.12,208.33,338.16,208.22,338.09,208.18"/>
		<path class="st14" d="M338.48,210.06c-0.33-0.21-0.41-0.55-0.19-0.9c0.25-0.4,0.88-0.77,1.39-0.45c0.28,0.18,0.35,0.45,0.19,0.7
			l0,0c-0.14,0.22-0.35,0.28-0.69,0.16l-0.36-0.13c-0.06,0.15-0.02,0.27,0.12,0.36c0.17,0.11,0.37,0.05,0.37,0.05
			s0.06,0.11-0.01,0.21C339.2,210.24,338.8,210.26,338.48,210.06 M339.39,208.99c-0.13-0.08-0.31,0.09-0.42,0.23l0.24,0.06
			c0.08,0.02,0.14-0.02,0.18-0.09C339.42,209.14,339.45,209.04,339.39,208.99"/>
		<path class="st14" d="M340.01,211.02c-0.21-0.13-0.29-0.32-0.42-0.47c-0.08,0.02-0.15,0.05-0.22,0.07c0,0-0.23-0.15-0.13-0.31
			c0.12-0.19,0.65-0.32,1.23-0.48c-0.04-0.03-0.07-0.06-0.11-0.08c-0.2-0.12-0.33-0.07-0.33-0.07s-0.03-0.18,0.08-0.33
			c0.14-0.2,0.38-0.13,0.54-0.04c0.17,0.1,0.25,0.25,0.33,0.37l0.17-0.06c0,0,0.23,0.15,0.13,0.31c-0.12,0.19-0.63,0.31-1.19,0.47
			c0.06,0.06,0.11,0.12,0.18,0.16c0.17,0.11,0.33,0.05,0.33,0.05s0.05,0.17-0.06,0.34C340.39,211.18,340.17,211.12,340.01,211.02"/>
		<path class="st14" d="M340.48,212.2c-0.28-0.18-0.4-0.46-0.29-0.63c0.07-0.11,0.2-0.11,0.2-0.11s0.04,0.15,0.23,0.27
			c0.18,0.11,0.46,0.19,0.67-0.05l0.16-0.19c-0.23,0.1-0.47,0.14-0.67,0.01c-0.22-0.14-0.21-0.39,0.08-0.72l0.32-0.36
			c0.19-0.22,0.33-0.42,0.33-0.42c0.18,0.07,0.43,0.13,0.51,0.17c0.06,0.04,0.08,0.12,0.08,0.12l-0.4,0.45l-0.37,0.42
			c-0.03,0.04-0.04,0.07,0,0.09c0.19,0.12,0.62-0.35,0.62-0.35c0.19-0.22,0.33-0.42,0.33-0.42c0.18,0.07,0.43,0.13,0.51,0.17
			c0.06,0.04,0.08,0.12,0.08,0.12l-0.4,0.45l-0.65,0.75C341.43,212.44,340.92,212.48,340.48,212.2"/>
		<path class="st14" d="M320.82,198.86l-0.51-0.32l0.85-1.35l0.5,0.31c0.11,0.07,0.19,0.13,0.24,0.19c0.06,0.07,0.11,0.16,0.13,0.25
			c0.02,0.1,0.02,0.2-0.01,0.3c-0.02,0.11-0.08,0.22-0.16,0.35c-0.07,0.11-0.14,0.2-0.22,0.26c-0.1,0.08-0.19,0.13-0.29,0.15
			c-0.08,0.02-0.16,0.01-0.26-0.01C321.01,198.97,320.92,198.93,320.82,198.86 M321.29,197.59l-0.56,0.9l0.2,0.13
			c0.08,0.05,0.13,0.08,0.17,0.09c0.05,0.02,0.1,0.02,0.15,0.01c0.05-0.01,0.1-0.04,0.15-0.09c0.06-0.05,0.12-0.13,0.18-0.23
			c0.07-0.1,0.11-0.19,0.12-0.26c0.02-0.07,0.02-0.13,0-0.18c-0.01-0.05-0.04-0.1-0.09-0.14c-0.03-0.03-0.1-0.08-0.22-0.15
			L321.29,197.59"/>
		<path class="st14" d="M322.02,199.65c-0.17-0.11-0.26-0.24-0.27-0.4c-0.01-0.13,0.03-0.26,0.12-0.4c0.1-0.16,0.22-0.26,0.37-0.3
			c0.14-0.04,0.28-0.02,0.41,0.06c0.15,0.09,0.23,0.21,0.25,0.36c0.02,0.15-0.03,0.32-0.16,0.52l-0.65-0.41
			c-0.05,0.08-0.06,0.15-0.05,0.22c0.01,0.07,0.05,0.12,0.11,0.16c0.04,0.03,0.08,0.04,0.12,0.03c0.04,0,0.08-0.03,0.13-0.07
			l0.23,0.21c-0.09,0.07-0.19,0.11-0.29,0.12C322.23,199.74,322.13,199.71,322.02,199.65 M322.53,198.81
			c-0.06-0.04-0.12-0.04-0.18-0.03c-0.06,0.02-0.12,0.06-0.16,0.13l0.39,0.24c0.05-0.08,0.06-0.15,0.05-0.21
			C322.61,198.89,322.58,198.85,322.53,198.81"/>
		<path class="st14" d="M323.01,200.27c-0.13-0.08-0.22-0.18-0.27-0.28c-0.04-0.1-0.05-0.21-0.01-0.32l0.29,0.12
			c-0.02,0.06-0.02,0.11,0,0.16c0.02,0.05,0.06,0.09,0.12,0.13c0.07,0.04,0.13,0.06,0.17,0.06c0.03,0,0.06-0.02,0.08-0.05
			c0.01-0.02,0.02-0.04,0.01-0.06c-0.01-0.02-0.03-0.05-0.07-0.09c-0.18-0.18-0.29-0.3-0.32-0.38c-0.04-0.1-0.04-0.2,0.02-0.29
			c0.05-0.08,0.13-0.14,0.23-0.15c0.1-0.02,0.23,0.02,0.37,0.11c0.13,0.08,0.22,0.17,0.26,0.25s0.04,0.18,0.01,0.28l-0.27-0.11
			c0.01-0.04,0.01-0.09,0-0.13c-0.02-0.04-0.05-0.07-0.11-0.11c-0.07-0.04-0.12-0.06-0.16-0.06c-0.03,0-0.05,0.01-0.06,0.03
			c-0.01,0.02-0.01,0.04,0,0.06c0.01,0.03,0.08,0.11,0.2,0.23c0.12,0.12,0.19,0.22,0.22,0.3c0.03,0.08,0.01,0.16-0.04,0.24
			c-0.06,0.09-0.14,0.14-0.26,0.16C323.29,200.4,323.16,200.36,323.01,200.27"/>
		<path class="st14" d="M323.92,200.81l-0.26-0.16l0.62-0.98l0.26,0.16L323.92,200.81 M324.62,199.7l-0.26-0.16l0.15-0.24l0.26,0.16
			L324.62,199.7"/>
		<path class="st14" d="M324.33,201.62c-0.17-0.1-0.27-0.21-0.3-0.31c-0.03-0.1-0.02-0.19,0.03-0.28c0.01-0.01,0.01-0.02,0.02-0.03
			l0.27,0.22c-0.02,0.04-0.02,0.07-0.01,0.09c0.01,0.03,0.05,0.07,0.1,0.1c0.07,0.04,0.12,0.06,0.17,0.07
			c0.03,0,0.06-0.01,0.09-0.03c0.02-0.02,0.05-0.05,0.09-0.11l0.09-0.14c-0.14,0.06-0.27,0.05-0.39-0.03
			c-0.13-0.08-0.2-0.2-0.21-0.36c-0.01-0.13,0.03-0.25,0.12-0.39c0.1-0.16,0.22-0.26,0.35-0.3c0.13-0.04,0.26-0.02,0.38,0.06
			c0.12,0.08,0.19,0.19,0.2,0.35l0.09-0.14l0.24,0.15l-0.55,0.88c-0.07,0.12-0.14,0.2-0.19,0.24c-0.06,0.05-0.11,0.07-0.16,0.08
			c-0.05,0.01-0.12,0.01-0.19-0.01C324.5,201.71,324.42,201.68,324.33,201.62 M325.07,200.41c-0.06-0.04-0.13-0.05-0.2-0.02
			c-0.07,0.02-0.14,0.08-0.2,0.18c-0.07,0.1-0.09,0.19-0.08,0.27c0.01,0.07,0.04,0.13,0.1,0.17c0.06,0.04,0.13,0.05,0.21,0.03
			c0.07-0.02,0.14-0.08,0.2-0.18c0.06-0.1,0.09-0.19,0.08-0.27C325.17,200.51,325.14,200.45,325.07,200.41"/>
		<path class="st14" d="M326.15,202.21l-0.26-0.16l0.31-0.5c0.07-0.11,0.1-0.18,0.11-0.22c0.01-0.04,0.01-0.07-0.01-0.11
			c-0.01-0.03-0.04-0.06-0.07-0.08c-0.04-0.03-0.09-0.04-0.14-0.04c-0.05,0-0.1,0.02-0.13,0.05c-0.04,0.03-0.09,0.1-0.16,0.21
			l-0.28,0.44l-0.26-0.16l0.62-0.98l0.24,0.15l-0.09,0.14c0.15-0.06,0.3-0.04,0.43,0.04c0.06,0.04,0.1,0.08,0.14,0.13
			c0.03,0.05,0.05,0.1,0.06,0.15c0,0.05,0,0.09-0.02,0.14c-0.02,0.05-0.05,0.11-0.1,0.18L326.15,202.21"/>
		<path class="st14" d="M326.76,202.63c-0.17-0.11-0.26-0.24-0.27-0.4c-0.01-0.13,0.03-0.26,0.12-0.4c0.1-0.16,0.22-0.26,0.37-0.3
			c0.14-0.04,0.28-0.02,0.41,0.06c0.15,0.09,0.23,0.21,0.25,0.36c0.02,0.15-0.03,0.32-0.16,0.52l-0.65-0.41
			c-0.05,0.08-0.06,0.15-0.05,0.22c0.01,0.07,0.05,0.12,0.11,0.16c0.04,0.03,0.08,0.04,0.12,0.03c0.04,0,0.08-0.03,0.13-0.07
			l0.23,0.21c-0.09,0.07-0.19,0.11-0.29,0.12C326.98,202.73,326.87,202.69,326.76,202.63 M327.27,201.79
			c-0.06-0.04-0.12-0.04-0.18-0.03c-0.06,0.02-0.12,0.06-0.16,0.13l0.39,0.24c0.05-0.08,0.06-0.15,0.05-0.21
			C327.36,201.87,327.33,201.83,327.27,201.79"/>
		<path class="st14" d="M327.73,203.23c-0.11-0.07-0.18-0.18-0.2-0.32c-0.02-0.14,0.02-0.29,0.12-0.46c0.1-0.17,0.22-0.27,0.35-0.31
			c0.13-0.04,0.26-0.02,0.38,0.06c0.11,0.07,0.18,0.17,0.2,0.31l0.31-0.49l0.26,0.16l-0.85,1.35l-0.24-0.15l0.09-0.14
			c-0.08,0.03-0.15,0.04-0.22,0.04C327.85,203.29,327.78,203.27,327.73,203.23 M328.32,202.45c-0.06-0.04-0.13-0.05-0.2-0.02
			c-0.07,0.02-0.14,0.08-0.2,0.18c-0.07,0.1-0.1,0.19-0.1,0.25c0,0.09,0.04,0.16,0.11,0.21c0.06,0.04,0.13,0.04,0.2,0.02
			c0.07-0.02,0.14-0.09,0.21-0.19c0.07-0.11,0.1-0.21,0.09-0.28C328.42,202.55,328.38,202.49,328.32,202.45"/>
		<path class="st14" d="M329.52,204.35c-0.06-0.04-0.1-0.08-0.14-0.15c-0.04-0.06-0.06-0.13-0.06-0.21l-0.09,0.14l-0.24-0.15
			l0.85-1.35l0.26,0.16l-0.31,0.49c0.14-0.04,0.26-0.03,0.37,0.04c0.12,0.07,0.19,0.18,0.21,0.32c0.02,0.14-0.02,0.28-0.12,0.45
			c-0.11,0.17-0.23,0.27-0.36,0.31C329.76,204.44,329.63,204.43,329.52,204.35 M329.96,203.48c-0.06-0.04-0.13-0.05-0.2-0.02
			c-0.07,0.02-0.14,0.08-0.2,0.18c-0.06,0.1-0.09,0.19-0.09,0.26c0,0.1,0.04,0.17,0.11,0.22c0.06,0.04,0.12,0.04,0.19,0.02
			c0.07-0.02,0.14-0.09,0.21-0.19c0.07-0.11,0.1-0.21,0.09-0.28C330.06,203.58,330.03,203.52,329.96,203.48"/>
		<path class="st14" d="M329.97,205.16c-0.05-0.03-0.1-0.07-0.14-0.11l0.1-0.22c0.04,0.03,0.07,0.06,0.1,0.08
			c0.06,0.04,0.12,0.05,0.17,0.03c0.05-0.02,0.1-0.05,0.15-0.09l0.24-1.22l0.28,0.17l-0.2,0.84l0.67-0.55l0.27,0.17l-0.94,0.73
			l-0.17,0.13c-0.06,0.04-0.11,0.07-0.15,0.09c-0.04,0.02-0.08,0.03-0.12,0.03c-0.04,0-0.08,0-0.13-0.02
			C330.07,205.22,330.02,205.19,329.97,205.16"/>
	</g>
</g>
<g>
	<path class="st15" d="M421.46,165.5c0.24-0.81,0.72-1.22,1.46-1.22c0.16,0,0.27,0.01,0.33,0.03c0.75-0.34,1.53-0.61,2.35-0.82
		c0.81-0.21,1.64-0.31,2.5-0.31c0.57,0,1.13,0.05,1.66,0.16c0.53,0.11,1.06,0.31,1.57,0.61v-0.03c0.55,0.28,1.05,0.63,1.49,1.07
		c0.44,0.44,0.81,0.92,1.13,1.46c0.32,0.53,0.56,1.1,0.73,1.69c0.17,0.59,0.25,1.19,0.25,1.78c0,1.17-0.32,2.24-0.95,3.21
		c-0.65,1.01-1.46,1.82-2.42,2.42c-0.96,0.6-2.08,0.96-3.37,1.05c-0.24,0.02-0.48,0.04-0.73,0.04c-0.25,0.01-0.48,0.01-0.7,0.01
		c-0.42,0-0.82-0.01-1.22-0.04s-0.77-0.06-1.13-0.1c0,0.75,0,1.57,0,2.47s0.01,1.69,0.03,2.41c-0.02,0.52-0.18,0.89-0.49,1.13
		c-0.31,0.24-0.64,0.36-1,0.36c-0.34,0-0.65-0.11-0.94-0.34c-0.29-0.23-0.46-0.57-0.52-1.02v-5.64l-0.06-0.03
		c-0.65-0.38-0.98-0.82-0.98-1.34c0-0.24,0.08-0.47,0.24-0.68c0.16-0.22,0.42-0.38,0.77-0.48V165.5z M429.93,166.27
		c-0.57-0.32-1.2-0.48-1.87-0.48c-0.63,0-1.26,0.09-1.89,0.28c-0.62,0.19-1.21,0.42-1.77,0.7v7.1c0.75,0.16,1.5,0.24,2.23,0.24
		c0.77,0,1.54-0.11,2.3-0.34c0.76-0.23,1.39-0.6,1.89-1.11c0.4-0.4,0.68-0.84,0.85-1.34c0.17-0.49,0.25-1,0.25-1.52
		c0-0.75-0.16-1.44-0.49-2.06C431.1,167.11,430.6,166.62,429.93,166.27z"/>
	<path class="st15" d="M436.94,165.02c0-0.46,0.16-0.85,0.49-1.17c0.33-0.33,0.72-0.49,1.17-0.49c0.48,0,0.88,0.16,1.2,0.49
		c0.33,0.33,0.49,0.72,0.49,1.17s-0.16,0.84-0.49,1.16c-0.33,0.32-0.73,0.48-1.2,0.48c-0.46,0-0.85-0.16-1.17-0.48
		C437.1,165.86,436.94,165.48,436.94,165.02z M440.12,180.91c-0.02,0.5-0.18,0.86-0.47,1.1c-0.29,0.24-0.62,0.36-0.97,0.36
		s-0.67-0.11-0.94-0.33c-0.28-0.22-0.44-0.55-0.5-1.01l-0.09-11.29c0.1-0.42,0.27-0.73,0.53-0.94c0.25-0.21,0.56-0.31,0.91-0.31
		c0.31,0,0.61,0.09,0.88,0.28c0.27,0.19,0.46,0.48,0.56,0.88L440.12,180.91z"/>
	<path class="st15" d="M454.67,179.55c0.44,0.12,0.75,0.31,0.95,0.56s0.3,0.52,0.3,0.8c0,0.34-0.17,0.65-0.5,0.93
		c-0.34,0.28-0.78,0.39-1.34,0.33c-0.75-0.1-1.52-0.17-2.3-0.22c-0.78-0.05-1.55-0.07-2.3-0.07c-0.85,0-1.7,0.02-2.54,0.06
		c-0.84,0.04-1.69,0.09-2.54,0.15c-0.5-0.06-0.87-0.2-1.11-0.43c-0.25-0.23-0.37-0.5-0.37-0.82c0-0.3,0.1-0.6,0.3-0.92
		c0.93-1.39,1.95-2.72,3.06-4.01c1.11-1.29,2.25-2.55,3.42-3.8l0.68-0.74c-1.05,0-2.05,0.02-3.01,0.06
		c-0.96,0.04-1.98,0.11-3.04,0.21c-0.52-0.04-0.89-0.18-1.13-0.43c-0.24-0.25-0.36-0.53-0.36-0.85c0-0.26,0.09-0.51,0.27-0.74
		c0.18-0.24,0.45-0.43,0.8-0.56c1.13-0.12,2.25-0.2,3.37-0.24c1.12-0.04,2.25-0.06,3.4-0.06c0.51,0,1.03,0,1.53,0s1,0.01,1.5,0.03
		c0.81,0.24,1.22,0.66,1.22,1.27c0,0.16-0.03,0.33-0.1,0.5c-0.07,0.18-0.18,0.35-0.34,0.5l-1.84,1.96
		c-0.97,1.01-1.94,2.05-2.91,3.13c-0.97,1.08-1.86,2.13-2.67,3.15c0.4-0.02,0.78-0.03,1.16-0.03c0.38,0,0.76,0,1.16,0
		c0.89,0,1.77,0.02,2.64,0.08c0.87,0.05,1.75,0.12,2.64,0.23H454.67z"/>
	<path class="st15" d="M469.05,179.55c0.44,0.12,0.75,0.31,0.95,0.56s0.3,0.52,0.3,0.8c0,0.34-0.17,0.65-0.5,0.93
		c-0.34,0.28-0.78,0.39-1.34,0.33c-0.75-0.1-1.52-0.17-2.3-0.22c-0.78-0.05-1.55-0.07-2.3-0.07c-0.85,0-1.7,0.02-2.54,0.06
		c-0.84,0.04-1.69,0.09-2.54,0.15c-0.5-0.06-0.87-0.2-1.11-0.43c-0.25-0.23-0.37-0.5-0.37-0.82c0-0.3,0.1-0.6,0.3-0.92
		c0.93-1.39,1.95-2.72,3.06-4.01c1.11-1.29,2.25-2.55,3.42-3.8l0.68-0.74c-1.05,0-2.05,0.02-3.01,0.06
		c-0.96,0.04-1.98,0.11-3.04,0.21c-0.52-0.04-0.89-0.18-1.13-0.43c-0.24-0.25-0.36-0.53-0.36-0.85c0-0.26,0.09-0.51,0.27-0.74
		c0.18-0.24,0.45-0.43,0.8-0.56c1.13-0.12,2.25-0.2,3.37-0.24c1.12-0.04,2.25-0.06,3.4-0.06c0.51,0,1.03,0,1.53,0s1,0.01,1.5,0.03
		c0.81,0.24,1.22,0.66,1.22,1.27c0,0.16-0.03,0.33-0.1,0.5c-0.07,0.18-0.18,0.35-0.34,0.5L467,173c-0.97,1.01-1.94,2.05-2.91,3.13
		c-0.97,1.08-1.86,2.13-2.67,3.15c0.4-0.02,0.78-0.03,1.16-0.03c0.38,0,0.76,0,1.16,0c0.89,0,1.77,0.02,2.64,0.08
		c0.87,0.05,1.75,0.12,2.64,0.23H469.05z"/>
	<path class="st15" d="M484.38,180.56c0.12,0.3,0.14,0.58,0.07,0.85c-0.07,0.27-0.21,0.49-0.42,0.65c-0.21,0.17-0.47,0.27-0.79,0.3
		c-0.32,0.03-0.65-0.04-1.01-0.22c-0.16-0.16-0.31-0.32-0.46-0.49c-0.15-0.17-0.27-0.33-0.37-0.49c-0.71,0.53-1.38,0.88-2,1.02
		s-1.3,0.22-2.04,0.22c-0.53,0-1.05-0.06-1.56-0.16c-0.5-0.11-1.01-0.33-1.53-0.67c-0.75-0.53-1.29-1.17-1.6-1.9
		c-0.32-0.73-0.47-1.5-0.47-2.32c0-0.83,0.12-1.62,0.37-2.36c0.25-0.74,0.59-1.44,1.02-2.08s0.94-1.23,1.5-1.77s1.17-1.01,1.83-1.43
		c0.14-0.08,0.33-0.17,0.58-0.27c0.25-0.1,0.53-0.19,0.85-0.28c0.32-0.09,0.64-0.16,0.98-0.21s0.66-0.07,0.98-0.07
		c0.61,0,1.16,0.07,1.65,0.22s0.84,0.51,1.05,1.08c0,0.59,0,1.09,0,1.49c0,0.4,0,0.73-0.01,1c-0.01,0.27-0.01,0.49-0.01,0.67
		s0,0.35,0,0.5c0,0.69,0.02,1.41,0.06,2.15c0.04,0.74,0.11,1.47,0.21,2.18c0.04,0.22,0.13,0.48,0.28,0.77
		c0.15,0.3,0.3,0.56,0.46,0.8h-0.03c0.14,0.22,0.25,0.4,0.34,0.53C484.39,180.43,484.42,180.52,484.38,180.56z M480.37,178.45
		c-0.16-0.69-0.26-1.41-0.3-2.15c-0.04-0.74-0.06-1.48-0.06-2.21c0-0.51,0.01-0.98,0.03-1.4c0.02-0.42,0.03-0.82,0.03-1.22
		c-0.34,0.04-0.68,0.13-1.03,0.27c-0.35,0.14-0.59,0.24-0.73,0.3c-0.54,0.24-1.02,0.57-1.44,1.01c-0.43,0.44-0.78,0.92-1.05,1.46
		c-0.28,0.53-0.48,1.09-0.61,1.68c-0.13,0.58-0.14,1.15-0.04,1.71c0.06,0.44,0.21,0.8,0.46,1.08c0.25,0.29,0.54,0.5,0.88,0.65
		s0.7,0.22,1.08,0.22c0.39,0,0.76-0.06,1.11-0.18C479.14,179.41,479.7,179,480.37,178.45z"/>
	<path class="st15" d="M497.18,165.5c0.24-0.81,0.72-1.22,1.46-1.22c0.16,0,0.27,0.01,0.33,0.03c0.75-0.34,1.53-0.61,2.35-0.82
		c0.81-0.21,1.64-0.31,2.5-0.31c0.57,0,1.13,0.05,1.66,0.16c0.53,0.11,1.06,0.31,1.57,0.61v-0.03c0.55,0.28,1.05,0.63,1.49,1.07
		c0.44,0.44,0.81,0.92,1.13,1.46c0.32,0.53,0.56,1.1,0.73,1.69c0.17,0.59,0.25,1.19,0.25,1.78c0,1.17-0.32,2.24-0.95,3.21
		c-0.65,1.01-1.46,1.82-2.42,2.42c-0.96,0.6-2.08,0.96-3.37,1.05c-0.24,0.02-0.48,0.04-0.73,0.04c-0.25,0.01-0.48,0.01-0.7,0.01
		c-0.42,0-0.82-0.01-1.22-0.04s-0.77-0.06-1.13-0.1c0,0.75,0,1.57,0,2.47s0.01,1.69,0.03,2.41c-0.02,0.52-0.18,0.89-0.49,1.13
		c-0.31,0.24-0.64,0.36-1,0.36c-0.34,0-0.65-0.11-0.94-0.34c-0.29-0.23-0.46-0.57-0.52-1.02v-5.64l-0.06-0.03
		c-0.65-0.38-0.98-0.82-0.98-1.34c0-0.24,0.08-0.47,0.24-0.68c0.16-0.22,0.42-0.38,0.77-0.48V165.5z M505.65,166.27
		c-0.57-0.32-1.2-0.48-1.87-0.48c-0.63,0-1.26,0.09-1.89,0.28c-0.62,0.19-1.21,0.42-1.77,0.7v7.1c0.75,0.16,1.5,0.24,2.23,0.24
		c0.77,0,1.54-0.11,2.3-0.34c0.76-0.23,1.39-0.6,1.89-1.11c0.4-0.4,0.68-0.84,0.85-1.34c0.17-0.49,0.25-1,0.25-1.52
		c0-0.75-0.16-1.44-0.49-2.06C506.82,167.11,506.32,166.62,505.65,166.27z"/>
	<path class="st15" d="M512.66,165.02c0-0.46,0.16-0.85,0.49-1.17c0.33-0.33,0.72-0.49,1.17-0.49c0.48,0,0.88,0.16,1.2,0.49
		c0.33,0.33,0.49,0.72,0.49,1.17s-0.16,0.84-0.49,1.16c-0.33,0.32-0.73,0.48-1.2,0.48c-0.46,0-0.85-0.16-1.17-0.48
		C512.82,165.86,512.66,165.48,512.66,165.02z M515.84,180.91c-0.02,0.5-0.18,0.86-0.47,1.1c-0.29,0.24-0.62,0.36-0.97,0.36
		s-0.67-0.11-0.94-0.33c-0.28-0.22-0.44-0.55-0.5-1.01l-0.09-11.29c0.1-0.42,0.27-0.73,0.53-0.94c0.25-0.21,0.56-0.31,0.91-0.31
		c0.31,0,0.61,0.09,0.88,0.28c0.27,0.19,0.46,0.48,0.56,0.88L515.84,180.91z"/>
	<path class="st15" d="M529.35,178.3c0.32-0.12,0.61-0.17,0.88-0.15c0.27,0.02,0.49,0.09,0.68,0.21c0.19,0.12,0.34,0.27,0.45,0.46
		c0.11,0.19,0.16,0.39,0.16,0.61c0,0.22-0.07,0.43-0.21,0.64c-0.14,0.21-0.36,0.4-0.65,0.58c-0.83,0.5-1.73,0.92-2.69,1.26
		c-0.96,0.35-1.93,0.52-2.9,0.52c-0.58,0-1.16-0.08-1.75-0.25c-0.59-0.17-1.15-0.43-1.66-0.79c-0.83-0.61-1.48-1.42-1.95-2.42
		c-0.46-1-0.7-2.02-0.7-3.07c0-1.03,0.2-2.02,0.61-2.97c0.41-0.95,1.05-1.72,1.95-2.32c0.71-0.49,1.48-0.89,2.32-1.19
		c0.83-0.3,1.69-0.45,2.58-0.45c0.47,0,0.94,0.05,1.4,0.15c0.44,0.1,0.84,0.27,1.22,0.52s0.7,0.54,0.98,0.89
		c0.28,0.35,0.5,0.73,0.65,1.14c0.16,0.42,0.24,0.83,0.24,1.25c0,0.28-0.03,0.54-0.09,0.8c-0.06,0.26-0.17,0.5-0.33,0.74
		c-0.3,0.48-0.7,0.89-1.22,1.23c-0.52,0.35-1.08,0.65-1.69,0.91c-0.61,0.26-1.25,0.48-1.9,0.65s-1.27,0.34-1.84,0.48
		c-0.61,0.16-1,0.26-1.17,0.3c-0.17,0.04-0.27,0.06-0.31,0.06c0.28,0.57,0.67,1.03,1.19,1.37c0.51,0.34,1.15,0.48,1.9,0.42
		c0.63-0.04,1.29-0.22,1.98-0.55C528.15,179,528.78,178.65,529.35,178.3z M523.89,172.33c-0.65,0.34-1.14,0.79-1.46,1.35
		c-0.32,0.56-0.5,1.19-0.54,1.89c0.06-0.02,0.16-0.05,0.31-0.09c0.15-0.04,0.37-0.1,0.67-0.19s0.72-0.21,1.28-0.37
		c0.2-0.06,0.5-0.14,0.89-0.25c0.4-0.11,0.8-0.24,1.2-0.39c0.41-0.15,0.78-0.32,1.13-0.52c0.35-0.2,0.58-0.42,0.7-0.65
		c0.04-0.57-0.09-0.97-0.39-1.19c-0.3-0.22-0.65-0.33-1.07-0.33c-0.46,0-0.94,0.08-1.46,0.25
		C524.65,172.01,524.22,172.17,523.89,172.33z"/>
	<path class="st15" d="M533.36,179.75c-0.28-0.57-0.28-1.05-0.02-1.44c0.27-0.39,0.66-0.58,1.17-0.58c0.34,0,0.7,0.13,1.1,0.39
		c0.42,0.55,0.91,1.02,1.49,1.4c0.57,0.38,1.18,0.51,1.81,0.39c0.3-0.06,0.56-0.17,0.79-0.34s0.4-0.36,0.5-0.58
		c0.11-0.22,0.16-0.46,0.16-0.71c0-0.26-0.07-0.49-0.21-0.71c-0.18-0.28-0.37-0.49-0.58-0.65s-0.43-0.28-0.65-0.36
		s-0.45-0.14-0.65-0.18s-0.4-0.09-0.58-0.15c-0.3-0.08-0.59-0.16-0.89-0.25c-0.3-0.09-0.58-0.2-0.86-0.34s-0.54-0.31-0.8-0.52
		c-0.26-0.21-0.5-0.47-0.74-0.79c-0.22-0.3-0.39-0.62-0.5-0.97s-0.18-0.67-0.18-0.97c0-0.42,0.08-0.84,0.24-1.28
		c0.16-0.44,0.37-0.84,0.64-1.2c0.27-0.37,0.58-0.68,0.95-0.95c0.37-0.27,0.76-0.45,1.17-0.55c0.83-0.22,1.7-0.25,2.6-0.09
		c0.9,0.16,1.71,0.44,2.42,0.83c0.28,0.2,0.48,0.41,0.62,0.62c0.14,0.22,0.21,0.43,0.21,0.62c0,0.24-0.06,0.45-0.19,0.64
		c-0.13,0.19-0.3,0.34-0.5,0.46c-0.21,0.12-0.45,0.18-0.71,0.18c-0.27,0-0.55-0.08-0.85-0.24c-0.24-0.12-0.57-0.23-1-0.34
		c-0.43-0.11-0.85-0.15-1.26-0.12c-0.42,0.03-0.76,0.16-1.04,0.4s-0.39,0.63-0.33,1.19c0.12,0.22,0.26,0.4,0.43,0.55
		c0.17,0.15,0.36,0.27,0.56,0.37c0.21,0.1,0.43,0.18,0.67,0.25c0.24,0.07,0.46,0.13,0.68,0.19c0.61,0.18,1.18,0.38,1.69,0.61
		c0.52,0.23,0.96,0.51,1.34,0.85c0.38,0.34,0.67,0.74,0.88,1.22c0.21,0.48,0.31,1.05,0.31,1.72c0,0.53-0.12,1.05-0.36,1.56
		s-0.55,0.96-0.94,1.35c-0.39,0.4-0.83,0.71-1.32,0.95c-0.5,0.24-0.99,0.36-1.49,0.36c-1.11,0-2.19-0.25-3.24-0.74
		c-1.05-0.5-1.89-1.18-2.53-2.05H533.36z"/>
</g>
</svg>
